<svg width="248" height="240" viewBox="0 0 248 240" fill="none" xmlns="http://www.w3.org/2000/svg">
<path fill-rule="evenodd" clip-rule="evenodd" d="M247.943 124.434C246.726 194.169 190.624 240.022 122.427 238.832C54.2306 237.642 -0.236597 189.858 0.980633 120.123C2.19786 50.3878 58.3843 -0.322238 126.581 0.868141C194.778 2.05852 249.16 54.6985 247.943 124.434Z" fill="white" style="fill:white;fill:white;fill-opacity:1;"/>
<path fill-rule="evenodd" clip-rule="evenodd" d="M247.939 124.68C246.719 194.556 190.616 240.505 122.419 239.315C54.2222 238.124 -0.243365 190.246 0.976334 120.369C2.19603 50.4926 58.3843 -0.322239 126.581 0.868141C194.778 2.05852 249.158 54.8034 247.939 124.68ZM242.451 124.584C241.297 190.694 191.101 233.415 125.287 232.266C59.473 231.117 6.68244 186.599 7.8364 120.489C8.99547 54.0855 58.2351 5.35418 123.738 6.49754C189.241 7.6409 243.61 58.1807 242.451 124.584Z" fill="#EA0029" style="fill:#EA0029;fill:color(display-p3 0.9176 0.0000 0.1608);fill-opacity:1;"/>
<path d="M98.7078 213.933C98.7078 213.933 99.5508 212.812 100.673 211.412C102.829 213.721 104.989 215.746 107.684 218.633C104.391 218.575 102.47 218.542 100.001 218.499C99.098 223.026 94.987 222.67 91.6892 222.897C90.5916 222.878 88.7054 220.857 87.907 219.423C87.1135 217.706 88.2408 216.022 89.8971 215.483C92.656 214.679 95.1307 214.438 98.7078 213.933Z" fill="#EA0029" style="fill:#EA0029;fill:color(display-p3 0.9176 0.0000 0.1608);fill-opacity:1;"/>
<path d="M150.869 87.6331C150.814 90.7556 148.584 92.7044 146.683 91.5354C143.43 89.207 139.848 89.9963 136.301 88.7986C135.757 88.5052 134.929 88.7746 134.664 88.2021C133.861 87.0523 132.509 85.8929 132.528 84.7575C132.563 82.7704 134.509 81.3846 135.866 82.2602C138.58 84.0112 142.461 81.8074 144.597 85.2521C144.862 85.8246 146.523 85.0017 147.616 85.3048C149.247 86.1851 150.33 87.0558 150.869 87.6331Z" fill="#EA0029" style="fill:#EA0029;fill:color(display-p3 0.9176 0.0000 0.1608);fill-opacity:1;"/>
<path d="M100.524 94.137C102.13 96.4367 102.939 97.3027 103.198 98.159C104.236 101.585 103.064 105.823 106.587 108.44C106.856 108.729 106.258 111.558 105.425 112.112C104.592 112.665 102.132 112.054 101.598 111.193C100.001 108.325 98.14 104.886 97.6457 101.753C97.406 99.7616 99.0921 97.5195 100.524 94.137Z" fill="#EA0029" style="fill:#EA0029;fill:color(display-p3 0.9176 0.0000 0.1608);fill-opacity:1;"/>
<path d="M198.581 153.207C198.821 155.199 199.345 156.628 199.046 158.042C198.727 160.592 197.585 163.128 199.735 165.721C200.274 166.298 199.127 169.118 198.289 169.955C197.456 170.508 195.256 170.754 194.447 169.888C193.639 169.022 192.855 166.737 193.424 165.611C194.556 163.643 194.037 161.93 193.523 159.933C193.034 156.518 193.882 155.112 198.581 153.207Z" fill="#EA0029" style="fill:#EA0029;fill:color(display-p3 0.9176 0.0000 0.1608);fill-opacity:1;"/>
<path d="M194.5 182.667C196.322 188.377 196.037 188.94 191.887 190.856C190.779 191.404 189.662 192.52 188.549 193.353C186.883 194.46 185.516 194.152 184.169 192.708C182.822 191.265 182.856 189.278 184.248 188.167C187.576 186.237 190.898 184.591 194.5 182.667Z" fill="#EA0029" style="fill:#EA0029;fill:color(display-p3 0.9176 0.0000 0.1608);fill-opacity:1;"/>
<path d="M169.954 189.337C168.871 188.466 167.519 187.307 166.716 186.157C166.182 185.296 166.486 183.597 167.049 182.755C167.902 181.066 169.025 179.666 169.873 178.261C171 176.577 172.656 176.038 174.283 177.202C175.366 178.073 176.429 180.079 175.865 180.921C174.718 183.741 173.306 185.988 171.615 188.514C171.61 188.798 170.787 188.783 169.954 189.337Z" fill="#EA0029" style="fill:#EA0029;fill:color(display-p3 0.9176 0.0000 0.1608);fill-opacity:1;"/>
<path d="M154.369 154.423C153.8 155.549 153.227 156.959 152.952 156.954C148.841 156.598 149.276 163.136 145.444 162.502C144.347 162.483 142.994 161.323 142.74 160.183C142.48 159.327 143.064 157.349 143.897 156.796C145.838 155.694 147.229 154.582 148.367 152.33C148.656 151.484 150.856 151.238 151.949 151.541C152.762 152.123 153.561 153.557 154.369 154.423Z" fill="#EA0029" style="fill:#EA0029;fill:color(display-p3 0.9176 0.0000 0.1608);fill-opacity:1;"/>
<path d="M158.664 191.411C157.835 191.681 157.287 191.671 156.733 191.946C154.533 192.191 152.901 191.311 152.941 189.04C152.961 187.904 153.809 186.499 154.642 185.946C156.308 184.839 158.219 185.441 159.007 187.442C159.531 188.871 160.345 189.453 161.727 188.909C163.657 188.375 165.289 189.255 165.798 191.536C166.038 193.528 165.464 194.937 163.808 195.476C161.877 196.011 160.246 195.13 159.457 193.129C159.188 192.84 158.923 192.268 158.664 191.411Z" fill="#EA0029" style="fill:#EA0029;fill:color(display-p3 0.9176 0.0000 0.1608);fill-opacity:1;"/>
<path d="M49.202 188.081C48.6582 187.788 47.5705 187.201 47.311 186.344C47.0515 185.488 47.0762 184.069 47.6398 183.227C48.7622 181.826 50.1689 179.863 52.0997 179.329C53.4816 178.785 55.6718 179.108 57.3083 179.704C58.1266 180.002 58.9102 182.288 58.6259 182.85C58.0523 184.26 56.391 185.083 55.2786 185.916C53.3429 186.734 51.6865 187.273 49.202 188.081Z" fill="#EA0029" style="fill:#EA0029;fill:color(display-p3 0.9176 0.0000 0.1608);fill-opacity:1;"/>
<path d="M202.797 100.466C205.811 100.802 207.717 101.687 207.657 105.094C207.642 105.945 208.176 106.806 208.71 107.668C210.048 109.679 209.743 111.377 207.803 112.479C206.137 113.586 204.784 112.426 203.736 109.568C203.207 108.423 202.404 107.274 201.6 106.124C200.797 104.974 200.268 103.829 199.465 102.679C200.577 101.847 201.69 101.014 202.797 100.466Z" fill="#EA0029" style="fill:#EA0029;fill:color(display-p3 0.9176 0.0000 0.1608);fill-opacity:1;"/>
<path d="M63.2883 198.833C67.9284 200.334 68.7268 201.767 66.2076 204.563C65.3646 205.684 64.5314 206.237 65.0555 207.666C65.844 209.668 64.7117 211.636 62.7909 211.602C61.4189 211.578 59.7873 210.698 58.7096 209.543C57.6367 208.105 57.9458 206.122 59.607 205.3C60.7195 204.467 62.1015 203.923 61.8618 201.931C62.151 201.085 62.9941 199.964 63.2883 198.833Z" fill="#EA0029" style="fill:#EA0029;fill:color(display-p3 0.9176 0.0000 0.1608);fill-opacity:1;"/>
<path d="M93.1438 123.823C93.6926 123.833 93.9669 123.837 93.962 124.121C95.5539 127.273 99.6551 128.196 100.693 131.622C100.953 132.478 99.5411 134.725 98.4336 135.273C97.6005 135.827 95.4202 134.937 94.8912 133.792C93.8283 131.786 93.8728 129.231 91.1387 128.615C90.8643 128.61 90.3502 126.614 90.6395 125.767C91.2031 124.925 92.3106 124.376 93.1438 123.823Z" fill="#EA0029" style="fill:#EA0029;fill:color(display-p3 0.9176 0.0000 0.1608);fill-opacity:1;"/>
<path d="M89.4583 99.055C89.9972 99.6323 91.6288 100.513 91.6188 101.08C91.0106 104.477 96.4689 106.276 94.2093 109.928C93.077 111.896 90.0635 111.559 88.7262 109.548C87.6633 107.542 86.8698 105.825 86.0812 103.823C85.0233 101.533 86.4399 99.0023 89.4583 99.055Z" fill="#EA0029" style="fill:#EA0029;fill:color(display-p3 0.9176 0.0000 0.1608);fill-opacity:1;"/>
<path d="M74.8658 101.64C75.9485 102.511 77.0412 102.814 77.3057 103.386C78.0991 105.104 79.4563 105.979 81.0878 106.86C82.9938 107.745 83.2285 110.02 81.8268 111.7C80.425 113.379 78.2298 113.341 77.162 111.618C76.0941 109.896 75.0113 109.025 73.3798 108.145C72.5665 107.563 72.0523 105.566 72.3465 104.435C72.6457 103.021 74.0277 102.477 74.8658 101.64Z" fill="#EA0029" style="fill:#EA0029;fill:color(display-p3 0.9176 0.0000 0.1608);fill-opacity:1;"/>
<path d="M42.2242 104.458C43.3069 105.328 44.3996 105.631 44.664 106.204C45.4575 107.922 46.8147 108.797 48.4462 109.677C50.3522 110.563 50.5869 112.838 49.1852 114.517C47.7834 116.197 45.5882 116.158 44.5204 114.436C43.4525 112.714 42.3697 111.843 40.7382 110.963C39.9249 110.381 39.4107 108.384 39.7049 107.253C40.0041 105.839 41.3861 105.295 42.2242 104.458Z" fill="#EA0029" style="fill:#EA0029;fill:color(display-p3 0.9176 0.0000 0.1608);fill-opacity:1;"/>
<path d="M210.738 132.975C209.381 132.099 208.283 132.08 208.024 131.223C206.951 129.785 206.397 130.059 204.741 130.598C203.638 130.863 201.727 130.262 201.193 129.4C200.659 128.539 201.248 126.278 202.081 125.725C202.914 125.171 205.104 125.493 205.918 126.076C206.995 127.23 207.819 127.245 209.201 126.701C210.029 126.431 211.131 126.167 211.675 126.46C213.312 127.056 214.659 128.5 213.801 130.472C213.237 131.314 211.581 131.853 210.738 132.975Z" fill="#EA0029" style="fill:#EA0029;fill:color(display-p3 0.9176 0.0000 0.1608);fill-opacity:1;"/>
<path d="M79.9873 201.396C82.4569 201.439 87.297 207.203 86.983 209.469C86.6789 211.167 85.0127 212.274 83.3811 211.394C81.4801 210.225 79.589 208.488 77.9723 206.756C77.4334 206.179 77.4681 204.192 77.7623 203.061C78.321 202.503 79.4286 201.954 79.9873 201.396Z" fill="#EA0029" style="fill:#EA0029;fill:color(display-p3 0.9176 0.0000 0.1608);fill-opacity:1;"/>
<path d="M86.2832 45.0489C86.0038 45.328 85.9889 46.1796 85.7046 46.7425C84.5772 48.4266 82.916 49.2494 81.5687 47.8061C79.6776 46.0694 75.8311 46.2863 75.9005 42.3121C75.9104 41.7444 76.1947 41.1815 76.474 40.9024C78.1551 38.9441 80.0512 40.3969 81.9621 40.9982C83.873 41.5995 85.7839 42.2007 86.2832 45.0489Z" fill="#EA0029" style="fill:#EA0029;fill:color(display-p3 0.9176 0.0000 0.1608);fill-opacity:1;"/>
<path d="M103.17 68.3437C103.704 69.2049 105.056 70.3643 104.767 71.2111C103.914 72.8999 103.051 75.1565 101.395 75.6955C99.7337 76.5183 98.3568 76.7782 96.9649 77.8897C96.4062 78.4479 94.2209 77.8419 93.682 77.2646C93.1431 76.6873 93.7414 73.8582 94.0159 73.8629C97.588 73.6413 99.0195 70.2589 101.793 68.6036C102.068 68.6084 102.342 68.6132 103.17 68.3437Z" fill="#EA0029" style="fill:#EA0029;fill:color(display-p3 0.9176 0.0000 0.1608);fill-opacity:1;"/>
<path d="M67.6095 171.365C66.5317 170.211 65.444 169.624 65.1845 168.767C64.9249 167.911 65.4985 166.501 66.0572 165.943C67.1796 164.543 68.5714 163.431 69.6938 162.031C71.0906 160.636 72.7469 160.097 74.0941 161.54C74.9025 162.406 75.6811 164.975 75.1274 165.249C72.8876 167.766 70.3882 169.426 67.6095 171.365Z" fill="#EA0029" style="fill:#EA0029;fill:color(display-p3 0.9176 0.0000 0.1608);fill-opacity:1;"/>
<path d="M134.55 220.521C133.717 221.075 132.599 222.191 131.227 222.167C129.027 222.413 126.503 225.492 124.367 222.047C123.3 220.325 124.157 218.352 126.093 217.534C127.749 216.995 129.406 216.456 131.057 216.201C133.257 215.956 134.879 217.404 134.55 220.521Z" fill="#EA0029" style="fill:#EA0029;fill:color(display-p3 0.9176 0.0000 0.1608);fill-opacity:1;"/>
<path d="M219.204 119.777C215.152 116.015 214.917 113.739 217.75 108.677C221.043 108.735 221.822 111.304 222.326 113.868C223.1 116.721 221.967 118.689 219.204 119.777Z" fill="#EA0029" style="fill:#EA0029;fill:color(display-p3 0.9176 0.0000 0.1608);fill-opacity:1;"/>
<path d="M111.236 140.892C113.157 140.926 114.773 142.657 114.734 144.928C114.679 148.051 112.709 150.856 110.788 150.822C108.867 150.789 107.265 148.205 107.32 145.083C107.359 142.812 109.041 140.854 111.236 140.892Z" fill="#EA0029" style="fill:#EA0029;fill:color(display-p3 0.9176 0.0000 0.1608);fill-opacity:1;"/>
<path d="M69.1585 145.553C68.6146 145.259 67.5269 144.672 66.9881 144.095C65.9152 142.657 65.1218 140.939 64.6027 139.226C64.3431 138.37 64.9167 136.96 65.4754 136.402C66.0341 135.844 67.9549 135.878 68.2194 136.45C69.8411 137.898 71.1834 139.625 72.2463 141.631C73.3191 143.07 71.633 145.312 69.1585 145.553Z" fill="#EA0029" style="fill:#EA0029;fill:color(display-p3 0.9176 0.0000 0.1608);fill-opacity:1;"/>
<path d="M27.2456 144.943C26.7018 144.65 25.6141 144.063 25.0752 143.486C24.0024 142.047 23.2089 140.33 22.6898 138.617C22.4303 137.76 23.0038 136.351 23.5626 135.793C24.1213 135.234 26.0421 135.268 26.3066 135.84C27.9282 137.288 29.2705 139.016 30.3334 141.022C31.4063 142.46 29.7202 144.702 27.2456 144.943Z" fill="#EA0029" style="fill:#EA0029;fill:color(display-p3 0.9176 0.0000 0.1608);fill-opacity:1;"/>
<path d="M169.107 206.359C169.103 206.643 169.068 208.63 168.23 209.467C167.666 210.309 166.005 211.132 164.633 211.108C164.084 211.099 163.295 209.097 163.041 207.957C162.791 206.533 163.644 204.844 163.4 203.136C163.16 201.144 164.008 199.739 165.934 199.489C168.134 199.243 168.658 200.672 168.897 202.664C169.152 203.804 169.137 204.656 169.107 206.359Z" fill="#EA0029" style="fill:#EA0029;fill:color(display-p3 0.9176 0.0000 0.1608);fill-opacity:1;"/>
<path d="M163.872 18.86C163.284 21.1213 162.691 23.6665 161.553 25.9183C161.269 26.4812 158.794 26.7219 157.702 26.4189C156.065 25.8224 154.997 24.1001 156.125 22.4161C157.257 20.4482 158.933 18.7738 160.609 17.0993C160.889 16.8202 161.986 16.8394 162.535 16.849C163.353 17.1472 164.172 17.4454 164.985 18.0275C164.706 18.3066 164.152 18.5809 163.872 18.86Z" fill="#EA0029" style="fill:#EA0029;fill:color(display-p3 0.9176 0.0000 0.1608);fill-opacity:1;"/>
<path d="M117.035 75.9684C117.534 78.8166 118.048 80.8132 118.014 82.8003C117.994 83.9357 116.862 85.9036 116.034 86.1731C114.657 86.4331 112.741 86.1156 111.663 84.961C111.124 84.3837 111.433 82.4014 111.732 80.9869C112.031 79.5724 112.874 78.4513 113.992 77.335C114.551 76.7768 115.653 76.5121 117.035 75.9684Z" fill="#EA0029" style="fill:#EA0029;fill:color(display-p3 0.9176 0.0000 0.1608);fill-opacity:1;"/>
<path d="M36.8823 110.044C37.3816 112.892 37.8957 114.888 37.861 116.875C37.8412 118.011 36.7089 119.979 35.8807 120.248C34.5038 120.508 32.5879 120.191 31.5101 119.036C30.9712 118.459 31.2803 116.477 31.5795 115.062C31.8786 113.648 32.7216 112.526 33.8391 111.41C34.3978 110.852 35.5004 110.587 36.8823 110.044Z" fill="#EA0029" style="fill:#EA0029;fill:color(display-p3 0.9176 0.0000 0.1608);fill-opacity:1;"/>
<path d="M205.405 92.5604C204.572 93.1138 203.18 94.2253 202.082 94.2062C198.789 94.1487 196.629 92.1233 196.943 89.8572C197.257 87.5911 198.644 86.7634 200.564 86.7969C203.308 86.8448 205.734 89.4427 205.405 92.5604Z" fill="#EA0029" style="fill:#EA0029;fill:color(display-p3 0.9176 0.0000 0.1608);fill-opacity:1;"/>
<path d="M159.991 68.1997C161.912 68.2332 163.529 69.9651 163.489 72.236C163.449 74.5069 161.489 76.7443 159.568 76.7108C157.647 76.6773 156.036 74.6615 155.801 72.3858C156.11 70.4035 157.796 68.1613 159.991 68.1997Z" fill="#EA0029" style="fill:#EA0029;fill:color(display-p3 0.9176 0.0000 0.1608);fill-opacity:1;"/>
<path d="M204.876 170.07C202.51 164.066 203.663 160.962 208.352 159.624C211.007 164.782 209.86 167.601 204.876 170.07Z" fill="#EA0029" style="fill:#EA0029;fill:color(display-p3 0.9176 0.0000 0.1608);fill-opacity:1;"/>
<path d="M117.629 120.559C115.958 121.95 115.115 123.071 114.007 123.619C112.077 124.154 107.481 120.098 107.516 118.111C107.526 117.543 107.815 116.697 108.374 116.138C110.324 114.469 112.215 116.205 113.847 117.086C114.93 117.957 116.007 119.111 117.629 120.559Z" fill="#EA0029" style="fill:#EA0029;fill:color(display-p3 0.9176 0.0000 0.1608);fill-opacity:1;"/>
<path d="M178.128 114.233C178.088 116.503 176.412 118.178 174.486 118.428C172.291 118.39 170.405 116.369 170.444 114.098C170.484 111.828 172.16 110.153 174.35 110.475C176.551 110.23 178.167 111.962 178.128 114.233Z" fill="#EA0029" style="fill:#EA0029;fill:color(display-p3 0.9176 0.0000 0.1608);fill-opacity:1;"/>
<path d="M230.457 151.219C230.418 153.49 228.741 155.164 226.816 155.415C224.62 155.376 222.734 153.356 222.774 151.085C222.814 148.814 224.49 147.139 226.68 147.462C228.88 147.216 230.497 148.948 230.457 151.219Z" fill="#EA0029" style="fill:#EA0029;fill:color(display-p3 0.9176 0.0000 0.1608);fill-opacity:1;"/>
<path d="M113.301 101.175C112.742 101.733 111.899 102.854 110.792 103.403C108.861 103.937 105.074 100.747 105.114 98.4765C105.148 96.4894 105.991 95.3683 107.917 95.1179C109.573 94.579 113.081 98.0476 113.301 101.175Z" fill="#EA0029" style="fill:#EA0029;fill:color(display-p3 0.9176 0.0000 0.1608);fill-opacity:1;"/>
<path d="M145.515 205.663C146.917 203.984 148.039 202.584 149.431 201.472C150.833 199.793 152.753 199.827 154.096 201.554C155.443 202.997 155.129 205.263 152.909 206.644C149.856 208.579 148.758 208.56 145.515 205.663Z" fill="#EA0029" style="fill:#EA0029;fill:color(display-p3 0.9176 0.0000 0.1608);fill-opacity:1;"/>
<path d="M160.184 57.129C160.15 59.1161 158.469 61.0744 156.543 61.3247C154.343 61.5703 152.721 60.1222 152.486 57.8465C152.256 55.2869 153.937 53.3285 156.407 53.3717C158.602 53.41 160.219 55.142 160.184 57.129Z" fill="#EA0029" style="fill:#EA0029;fill:color(display-p3 0.9176 0.0000 0.1608);fill-opacity:1;"/>
<path d="M216.995 136.207C217.519 137.636 218.592 139.075 218.832 141.067C219.062 143.626 216.542 146.422 215.185 145.546C213.828 144.671 213.035 142.953 212.79 141.245C212.281 138.965 214.526 136.164 216.995 136.207Z" fill="#EA0029" style="fill:#EA0029;fill:color(display-p3 0.9176 0.0000 0.1608);fill-opacity:1;"/>
<path d="M167.638 101.839C167.598 104.11 165.922 105.785 163.727 105.746C161.532 105.708 159.92 103.692 159.955 101.705C159.989 99.7182 161.945 97.7647 163.866 97.7983C166.061 97.8366 167.678 99.5685 167.638 101.839Z" fill="#EA0029" style="fill:#EA0029;fill:color(display-p3 0.9176 0.0000 0.1608);fill-opacity:1;"/>
<path d="M165.396 88.7387C165.362 90.7258 163.681 92.6842 161.76 92.6506C159.839 92.6171 157.953 90.5965 158.262 88.6142C158.571 86.6319 159.693 85.2318 161.893 84.9863C163.819 84.7359 165.436 86.4678 165.396 88.7387Z" fill="#EA0029" style="fill:#EA0029;fill:color(display-p3 0.9176 0.0000 0.1608);fill-opacity:1;"/>
<path d="M221.554 159.582C221.52 161.569 219.838 163.527 217.918 163.494C215.997 163.46 214.111 161.44 214.42 159.457C214.729 157.475 215.851 156.075 218.051 155.83C219.977 155.579 221.594 157.311 221.554 159.582Z" fill="#EA0029" style="fill:#EA0029;fill:color(display-p3 0.9176 0.0000 0.1608);fill-opacity:1;"/>
<path d="M184.528 109.233C185.062 110.094 186.694 110.975 187.213 112.687C188.001 114.689 186.046 116.642 183.845 116.888C181.92 117.138 179.754 115.397 179.789 113.41C179.554 111.134 181.235 109.176 184.528 109.233Z" fill="#EA0029" style="fill:#EA0029;fill:color(display-p3 0.9176 0.0000 0.1608);fill-opacity:1;"/>
<path d="M200.291 135.612C200.825 136.473 202.457 137.353 202.976 139.066C203.764 141.068 201.809 143.021 199.609 143.267C197.683 143.517 195.517 141.775 195.552 139.788C195.317 137.513 196.998 135.554 200.291 135.612Z" fill="#EA0029" style="fill:#EA0029;fill:color(display-p3 0.9176 0.0000 0.1608);fill-opacity:1;"/>
<path d="M70.3522 124.277C68.9356 126.808 67.7983 129.06 66.3916 131.023C65.5486 132.144 63.0989 130.965 63.398 129.551C63.7121 127.285 64.0311 124.735 64.889 122.762C65.1733 122.199 67.1039 121.665 67.9222 121.963C68.7454 121.977 69.5439 123.411 70.3522 124.277Z" fill="#EA0029" style="fill:#EA0029;fill:color(display-p3 0.9176 0.0000 0.1608);fill-opacity:1;"/>
<path d="M54.458 124.055C53.0413 126.586 51.904 128.838 50.4973 130.801C49.6543 131.922 47.2046 130.744 47.5037 129.329C47.8178 127.063 48.1368 124.513 48.9947 122.54C49.279 121.977 51.2096 121.443 52.0279 121.742C52.8511 121.756 53.6496 123.19 54.458 124.055Z" fill="#EA0029" style="fill:#EA0029;fill:color(display-p3 0.9176 0.0000 0.1608);fill-opacity:1;"/>
<path d="M40.5891 132.332C39.1724 134.863 38.0351 137.114 36.6284 139.078C35.7854 140.199 33.3357 139.02 33.6348 137.606C33.9489 135.339 34.2679 132.789 35.1258 130.817C35.4101 130.254 37.3407 129.72 38.159 130.018C38.9822 130.032 39.7807 131.466 40.5891 132.332Z" fill="#EA0029" style="fill:#EA0029;fill:color(display-p3 0.9176 0.0000 0.1608);fill-opacity:1;"/>
<path d="M86.932 165.172C87.1618 167.731 87.6758 169.728 87.6412 171.715C87.6213 172.85 86.4891 174.818 85.6609 175.088C84.5584 175.352 82.6524 174.467 82.1184 173.606C81.5845 172.745 81.6241 170.474 82.1878 169.632C83.3102 168.232 84.9764 167.125 86.932 165.172Z" fill="#EA0029" style="fill:#EA0029;fill:color(display-p3 0.9176 0.0000 0.1608);fill-opacity:1;"/>
<path d="M184.112 101.559C184.073 103.83 182.396 105.504 180.201 105.466C178.28 105.433 176.669 103.417 176.708 101.146C177.017 99.1636 178.14 97.7634 180.34 97.5178C182.535 97.5562 184.152 99.2881 184.112 101.559Z" fill="#EA0029" style="fill:#EA0029;fill:color(display-p3 0.9176 0.0000 0.1608);fill-opacity:1;"/>
<path d="M214.893 83.6395C217.617 84.8229 218.95 87.1177 218.905 89.6724C218.885 90.8079 217.758 92.4919 217.204 92.7662C216.106 92.7471 214.196 92.1458 213.662 91.2846C212.065 88.4173 212.658 85.8721 214.893 83.6395Z" fill="#EA0029" style="fill:#EA0029;fill:color(display-p3 0.9176 0.0000 0.1608);fill-opacity:1;"/>
<path d="M225.736 99.1424C228.46 100.326 229.793 102.621 229.748 105.175C229.728 106.311 228.601 107.995 228.047 108.269C226.949 108.25 225.039 107.649 224.505 106.788C222.908 103.92 223.501 101.375 225.736 99.1424Z" fill="#EA0029" style="fill:#EA0029;fill:color(display-p3 0.9176 0.0000 0.1608);fill-opacity:1;"/>
<path d="M220.744 70.6603C223.468 71.8436 224.8 74.1384 224.756 76.6932C224.736 77.8287 223.609 79.5127 223.055 79.787C221.957 79.7678 220.046 79.1666 219.512 78.3054C217.916 75.438 218.509 72.8929 220.744 70.6603Z" fill="#EA0029" style="fill:#EA0029;fill:color(display-p3 0.9176 0.0000 0.1608);fill-opacity:1;"/>
<path d="M122.054 197.303C120.672 197.847 119.29 198.391 117.913 198.651C116.262 198.906 114.635 197.742 114.67 195.755C114.695 194.336 115.553 192.363 116.66 191.814C118.326 190.708 120.237 191.309 121.3 193.315C121.829 194.46 121.8 196.163 122.054 197.303Z" fill="#EA0029" style="fill:#EA0029;fill:color(display-p3 0.9176 0.0000 0.1608);fill-opacity:1;"/>
<path d="M135.213 56.6932C135.179 58.6802 133.223 60.6337 131.307 60.3163C129.392 59.9989 128.034 59.1233 127.8 56.8476C127.565 54.5719 129.241 52.8975 131.436 52.9358C133.362 52.6855 135.248 54.7061 135.213 56.6932Z" fill="#EA0029" style="fill:#EA0029;fill:color(display-p3 0.9176 0.0000 0.1608);fill-opacity:1;"/>
<path d="M39.4778 100.454C37.0082 100.411 35.9255 99.5403 36.2296 97.8419C36.5387 95.8596 39.3322 93.0689 41.2481 93.3863C43.164 93.7037 44.2418 94.8583 44.2071 96.8454C43.893 99.1115 41.9474 100.497 39.4778 100.454Z" fill="#EA0029" style="fill:#EA0029;fill:color(display-p3 0.9176 0.0000 0.1608);fill-opacity:1;"/>
<path d="M66.3134 56.9103C65.4803 57.4636 64.3579 58.8638 62.976 59.4076C61.0453 59.9418 59.1641 57.6373 59.1988 55.6502C59.2335 53.6632 60.6302 52.2678 62.556 52.0175C64.4818 51.7671 66.3679 53.7878 66.3134 56.9103Z" fill="#EA0029" style="fill:#EA0029;fill:color(display-p3 0.9176 0.0000 0.1608);fill-opacity:1;"/>
<path d="M171.726 72.0958C168.713 71.7592 166.827 69.7386 167.41 67.7612C167.719 65.7789 169.116 64.3835 171.306 64.7057C173.501 64.744 175.113 66.7599 174.53 68.7373C173.956 70.1471 172.564 71.2585 171.726 72.0958Z" fill="#EA0029" style="fill:#EA0029;fill:color(display-p3 0.9176 0.0000 0.1608);fill-opacity:1;"/>
<path d="M172.032 133.151C171.708 135.984 169.748 138.222 168.106 137.909C166.185 137.876 164.838 136.432 164.873 134.445C164.913 132.174 167.147 129.942 169.058 130.543C170.151 130.846 171.224 132.285 172.032 133.151Z" fill="#EA0029" style="fill:#EA0029;fill:color(display-p3 0.9176 0.0000 0.1608);fill-opacity:1;"/>
<path d="M117.332 184.727C116.798 183.866 115.451 182.423 115.201 180.999C114.962 179.007 117.192 177.058 119.107 177.375C121.298 177.697 122.096 179.131 122.336 181.123C122.027 183.105 120.076 184.775 117.332 184.727Z" fill="#EA0029" style="fill:#EA0029;fill:color(display-p3 0.9176 0.0000 0.1608);fill-opacity:1;"/>
<path d="M211.736 138.671C211.682 141.794 210.001 143.752 207.805 143.714C205.61 143.675 204.537 142.237 204.577 139.966C204.617 137.695 206.577 135.458 208.214 136.054C209.576 136.646 210.923 138.089 211.736 138.671Z" fill="#EA0029" style="fill:#EA0029;fill:color(display-p3 0.9176 0.0000 0.1608);fill-opacity:1;"/>
<path d="M151.874 61.5272C151.545 64.645 149.869 66.3194 147.948 66.2859C146.027 66.2524 144.415 64.2366 144.729 61.9705C145.043 59.7043 146.994 58.0346 148.905 58.6359C149.992 59.2228 151.065 60.6613 151.874 61.5272Z" fill="#EA0029" style="fill:#EA0029;fill:color(display-p3 0.9176 0.0000 0.1608);fill-opacity:1;"/>
<path d="M206.17 64.4627C208.919 64.2267 210.815 65.6795 211.319 68.2439C211.573 69.3841 210.995 71.0777 210.167 71.3472C209.334 71.9006 207.697 71.3042 206.884 70.7221C204.988 69.2692 204.753 66.9935 206.17 64.4627Z" fill="#EA0029" style="fill:#EA0029;fill:color(display-p3 0.9176 0.0000 0.1608);fill-opacity:1;"/>
<path d="M140.759 69.2837C140.724 71.2708 138.484 73.7872 136.853 72.9069C135.765 72.32 134.423 70.5929 134.448 69.1736C134.208 67.1817 135.335 65.4976 137.531 65.536C139.451 65.5695 140.794 67.2967 140.759 69.2837Z" fill="#EA0029" style="fill:#EA0029;fill:color(display-p3 0.9176 0.0000 0.1608);fill-opacity:1;"/>
<path d="M96.6241 191.748C96.5696 194.871 99.269 197.473 97.2887 200.846C94.2653 201.078 92.3693 199.625 92.1494 196.497C91.9196 193.938 93.3213 192.259 96.6241 191.748Z" fill="#EA0029" style="fill:#EA0029;fill:color(display-p3 0.9176 0.0000 0.1608);fill-opacity:1;"/>
<path d="M168.483 147.854C166.258 149.519 165.136 150.919 163.754 151.463C162.097 152.002 160.211 149.982 160.246 147.995C160.285 145.724 161.687 144.044 163.603 144.362C164.97 144.67 166.317 146.113 168.483 147.854Z" fill="#EA0029" style="fill:#EA0029;fill:color(display-p3 0.9176 0.0000 0.1608);fill-opacity:1;"/>
<path d="M172.144 95.3872C170.537 93.0876 169.185 91.9281 168.935 90.504C168.695 88.5122 170.366 87.1216 172.287 87.1552C174.208 87.1887 176.099 88.9254 175.521 90.619C175.221 92.0335 173.825 93.4289 172.144 95.3872Z" fill="#EA0029" style="fill:#EA0029;fill:color(display-p3 0.9176 0.0000 0.1608);fill-opacity:1;"/>
<path d="M54.0395 52.4367C54.0345 52.7206 53.7503 53.2835 53.4659 53.8464C52.3386 55.5305 50.6922 55.5017 49.0656 54.3375C46.3513 52.5864 45.0238 50.0077 46.1462 48.6075C46.4305 48.0446 46.9843 47.7703 47.2636 47.4912C49.4688 46.9618 54.0791 50.1658 54.0395 52.4367Z" fill="#EA0029" style="fill:#EA0029;fill:color(display-p3 0.9176 0.0000 0.1608);fill-opacity:1;"/>
<path d="M76.4306 216.383C75.5975 216.937 74.2106 217.765 73.108 218.029C71.1823 218.28 69.2962 216.259 69.6102 213.993C69.6449 212.006 70.7623 210.889 72.6832 210.923C74.599 211.24 76.7546 213.55 76.4306 216.383Z" fill="#EA0029" style="fill:#EA0029;fill:color(display-p3 0.9176 0.0000 0.1608);fill-opacity:1;"/>
<path d="M141.448 45.444C144.192 45.4919 145.809 47.2238 145.495 49.49C145.181 51.7561 144.063 52.8723 141.868 52.834C139.947 52.8005 138.33 51.0686 138.914 49.0911C139.218 47.3927 140.884 46.286 141.448 45.444Z" fill="#EA0029" style="fill:#EA0029;fill:color(display-p3 0.9176 0.0000 0.1608);fill-opacity:1;"/>
<path d="M143.046 174.102C139.474 174.323 137.853 172.875 137.892 170.604C137.927 168.617 139.044 167.501 140.97 167.251C142.896 167 145.595 169.603 145.012 171.581C144.713 172.995 143.326 173.823 143.046 174.102Z" fill="#EA0029" style="fill:#EA0029;fill:color(display-p3 0.9176 0.0000 0.1608);fill-opacity:1;"/>
<path d="M167.971 82.8206C167.432 82.2433 166.08 81.0838 165.83 79.6597C165.595 77.384 167.546 75.7144 169.467 75.7479C171.387 75.7814 172.465 76.936 172.705 78.9278C172.945 80.9197 170.989 82.8733 167.971 82.8206Z" fill="#EA0029" style="fill:#EA0029;fill:color(display-p3 0.9176 0.0000 0.1608);fill-opacity:1;"/>
<path d="M147.687 18.2935C149.019 20.5883 150.366 22.0316 150.616 23.4557C150.861 25.1637 148.631 27.1124 146.994 26.516C145.632 25.9243 144.016 24.1923 144.31 23.0617C144.33 21.9262 146.001 20.5357 147.687 18.2935Z" fill="#EA0029" style="fill:#EA0029;fill:color(display-p3 0.9176 0.0000 0.1608);fill-opacity:1;"/>
<path d="M163.572 51.793C162.239 49.4981 160.618 48.0501 160.643 46.6308C160.403 44.6389 161.8 43.2435 163.995 43.2818C166.19 43.3202 167.537 44.7635 167.223 47.0296C166.65 48.4394 165.258 49.5508 163.572 51.793Z" fill="#EA0029" style="fill:#EA0029;fill:color(display-p3 0.9176 0.0000 0.1608);fill-opacity:1;"/>
<path d="M164.083 116.827C162.132 118.497 161.005 120.181 159.628 120.441C157.972 120.98 156.085 118.959 156.395 116.977C156.704 114.994 157.831 113.31 159.747 113.628C161.114 113.936 162.187 115.374 164.083 116.827Z" fill="#EA0029" style="fill:#EA0029;fill:color(display-p3 0.9176 0.0000 0.1608);fill-opacity:1;"/>
<path d="M94.9453 177.805C94.1221 177.791 93.5684 178.065 92.7501 177.767C90.0111 177.435 88.9382 175.997 89.5266 173.736C89.8357 171.753 91.2325 170.358 93.4228 170.68C95.3436 170.714 96.4065 172.72 95.8131 175.265C95.5238 176.112 95.2346 176.959 94.9453 177.805Z" fill="#EA0029" style="fill:#EA0029;fill:color(display-p3 0.9176 0.0000 0.1608);fill-opacity:1;"/>
<path d="M114.646 165.655C115.979 167.95 117.605 169.114 117.576 170.818C117.82 172.526 116.154 173.632 114.228 173.883C112.307 173.849 110.416 172.112 111 170.135C111.573 168.725 112.96 167.898 114.646 165.655Z" fill="#EA0029" style="fill:#EA0029;fill:color(display-p3 0.9176 0.0000 0.1608);fill-opacity:1;"/>
<path d="M135.6 34.5516C137.825 32.8867 138.952 31.2027 140.329 30.9428C141.986 30.4038 143.333 31.8471 143.573 33.8389C143.812 35.8308 142.401 38.0777 140.759 37.7651C139.118 37.4525 137.771 36.0092 135.6 34.5516Z" fill="#EA0029" style="fill:#EA0029;fill:color(display-p3 0.9176 0.0000 0.1608);fill-opacity:1;"/>
<path d="M102.347 21.1933C102.082 20.6208 100.725 19.7453 100.74 18.8937C100.495 17.1857 103.289 14.395 105.205 14.7123C106.851 14.7411 107.929 15.8957 107.899 17.5989C107.865 19.5859 105.64 21.2508 102.347 21.1933Z" fill="#EA0029" style="fill:#EA0029;fill:color(display-p3 0.9176 0.0000 0.1608);fill-opacity:1;"/>
<path d="M115.858 206.282C113.908 207.951 112.79 209.068 111.683 209.616C109.752 210.15 107.871 207.846 108.18 205.864C108.489 203.881 109.612 202.481 111.523 203.083C112.89 203.39 113.962 204.829 115.858 206.282Z" fill="#EA0029" style="fill:#EA0029;fill:color(display-p3 0.9176 0.0000 0.1608);fill-opacity:1;"/>
<path d="M151.776 129.958C149.556 131.339 148.154 133.018 146.782 132.994C144.861 132.96 143.793 131.238 144.107 128.972C144.416 126.99 145.813 125.594 147.45 126.191C148.537 126.778 149.61 128.216 151.776 129.958Z" fill="#EA0029" style="fill:#EA0029;fill:color(display-p3 0.9176 0.0000 0.1608);fill-opacity:1;"/>
<path d="M210.744 182.205C208.524 183.586 207.122 185.265 205.75 185.241C203.83 185.207 202.762 183.485 203.076 181.219C203.385 179.237 204.781 177.841 206.418 178.438C207.506 179.025 208.579 180.463 210.744 182.205Z" fill="#EA0029" style="fill:#EA0029;fill:color(display-p3 0.9176 0.0000 0.1608);fill-opacity:1;"/>
<path d="M181.282 169.374C179.062 170.755 177.935 172.439 176.558 172.699C174.632 172.949 173.834 171.516 173.594 169.524C173.629 167.537 175.31 165.579 176.946 166.175C178.313 166.483 179.391 167.637 181.282 169.374Z" fill="#EA0029" style="fill:#EA0029;fill:color(display-p3 0.9176 0.0000 0.1608);fill-opacity:1;"/>
<path d="M182.688 151.794C184.025 153.805 185.377 154.964 185.632 156.104C186.151 157.817 183.921 159.766 182.275 159.737C180.359 159.42 179.281 158.265 179.59 156.283C179.889 154.868 181.281 153.757 182.688 151.794Z" fill="#EA0029" style="fill:#EA0029;fill:color(display-p3 0.9176 0.0000 0.1608);fill-opacity:1;"/>
<path d="M200.41 192.404C201.748 194.415 203.1 195.575 203.354 196.715C203.873 198.428 201.644 200.376 199.997 200.348C198.081 200.03 197.003 198.876 197.313 196.893C197.612 195.479 199.003 194.367 200.41 192.404Z" fill="#EA0029" style="fill:#EA0029;fill:color(display-p3 0.9176 0.0000 0.1608);fill-opacity:1;"/>
<path d="M195.036 120.491C195.575 121.068 196.927 122.227 197.451 123.656C197.97 125.369 196.015 127.323 194.368 127.294C192.447 127.26 191.37 126.106 191.13 124.114C190.616 122.117 192.018 120.438 195.036 120.491Z" fill="#EA0029" style="fill:#EA0029;fill:color(display-p3 0.9176 0.0000 0.1608);fill-opacity:1;"/>
<path d="M166.968 171.68C164.474 173.056 163.351 174.456 161.705 174.427C159.779 174.678 158.711 172.955 159.015 171.257C159.05 169.27 160.452 167.591 162.368 167.908C163.735 168.216 164.808 169.654 166.968 171.68Z" fill="#EA0029" style="fill:#EA0029;fill:color(display-p3 0.9176 0.0000 0.1608);fill-opacity:1;"/>
<path d="M171.391 154.152C172.724 156.447 173.797 157.885 174.051 159.026C174.291 161.017 172.34 162.687 170.434 161.802C169.342 161.499 167.725 159.767 168.014 158.92C168.308 157.789 169.705 156.394 171.391 154.152Z" fill="#EA0029" style="fill:#EA0029;fill:color(display-p3 0.9176 0.0000 0.1608);fill-opacity:1;"/>
<path d="M127.341 67.3458C128.953 69.3616 130.031 70.5162 130.56 71.6612C131.079 73.374 129.123 75.3276 127.207 75.0102C125.291 74.6928 123.939 73.5334 124.523 71.5559C124.543 70.4204 125.934 69.3089 127.341 67.3458Z" fill="#EA0029" style="fill:#EA0029;fill:color(display-p3 0.9176 0.0000 0.1608);fill-opacity:1;"/>
<path d="M17.7534 109.71C19.3652 111.725 20.4429 112.88 20.9719 114.025C21.491 115.738 19.5355 117.691 17.6196 117.374C15.7038 117.057 14.3516 115.897 14.9351 113.92C14.9549 112.784 16.3467 111.673 17.7534 109.71Z" fill="#EA0029" style="fill:#EA0029;fill:color(display-p3 0.9176 0.0000 0.1608);fill-opacity:1;"/>
<path d="M53.1788 70.3106C51.2283 71.9802 50.3803 73.3852 49.0033 73.6451C47.347 74.1841 45.4558 72.4474 45.4905 70.4603C45.5252 68.4733 46.922 67.0779 48.5635 67.3905C49.9305 67.6983 51.0034 69.1368 53.1788 70.3106Z" fill="#EA0029" style="fill:#EA0029;fill:color(display-p3 0.9176 0.0000 0.1608);fill-opacity:1;"/>
<path d="M186.919 82.2993C187.458 82.8766 188.81 84.0361 189.06 85.4602C189.579 87.1729 187.628 88.8426 185.707 88.8091C183.787 88.7756 182.709 87.6209 182.743 85.6339C182.778 83.6468 184.18 81.9676 186.919 82.2993Z" fill="#EA0029" style="fill:#EA0029;fill:color(display-p3 0.9176 0.0000 0.1608);fill-opacity:1;"/>
<path d="M136.88 181.377C138.487 183.676 139.839 184.836 140.094 185.976C140.608 187.973 138.657 189.642 137.011 189.614C134.816 189.575 134.022 187.858 134.326 186.159C134.621 185.029 135.738 183.912 136.88 181.377Z" fill="#EA0029" style="fill:#EA0029;fill:color(display-p3 0.9176 0.0000 0.1608);fill-opacity:1;"/>
<path d="M144.494 219.823C146.101 222.123 147.453 223.282 147.708 224.423C148.222 226.419 146.272 228.089 144.625 228.06C142.43 228.022 141.636 226.304 141.941 224.606C142.235 223.475 143.352 222.359 144.494 219.823Z" fill="#EA0029" style="fill:#EA0029;fill:color(display-p3 0.9176 0.0000 0.1608);fill-opacity:1;"/>
<path d="M177.671 206.205C179.277 208.505 180.63 209.664 180.884 210.804C181.398 212.801 179.448 214.47 177.801 214.442C175.606 214.403 174.813 212.686 175.117 210.987C175.411 209.857 176.528 208.741 177.671 206.205Z" fill="#EA0029" style="fill:#EA0029;fill:color(display-p3 0.9176 0.0000 0.1608);fill-opacity:1;"/>
<path d="M87.0467 158.643C85.9888 156.353 84.6366 155.193 84.6614 153.774C84.4216 151.782 85.8135 150.671 87.7343 150.704C89.6551 150.738 91.2668 152.753 90.6883 154.447C90.1196 155.573 88.7278 156.684 87.0467 158.643Z" fill="#EA0029" style="fill:#EA0029;fill:color(display-p3 0.9176 0.0000 0.1608);fill-opacity:1;"/>
<path d="M141.632 192.25C142.969 194.261 144.321 195.421 144.571 196.845C144.81 198.836 143.419 199.948 141.498 199.914C139.577 199.881 138.225 198.722 138.534 196.739C138.828 195.609 140.22 194.497 141.632 192.25Z" fill="#EA0029" style="fill:#EA0029;fill:color(display-p3 0.9176 0.0000 0.1608);fill-opacity:1;"/>
<path d="M180.71 139.265C181.773 141.271 182.85 142.426 183.105 143.566C183.345 145.558 181.115 147.507 179.199 147.189C177.558 146.877 176.48 145.722 177.058 144.029C177.637 142.335 179.029 141.224 180.71 139.265Z" fill="#EA0029" style="fill:#EA0029;fill:color(display-p3 0.9176 0.0000 0.1608);fill-opacity:1;"/>
<path d="M55.0017 201.812C52.5073 203.188 51.3849 204.588 50.0129 204.564C48.0871 204.815 47.2986 202.813 47.6027 201.115C47.9118 199.133 49.0293 198.016 50.9451 198.334C52.0328 198.921 52.8362 200.071 55.0017 201.812Z" fill="#EA0029" style="fill:#EA0029;fill:color(display-p3 0.9176 0.0000 0.1608);fill-opacity:1;"/>
<path d="M184.387 54.4279C185.993 56.7275 187.35 57.6031 187.6 59.0272C188.114 61.0238 186.712 62.703 184.797 62.3856C183.43 62.0778 182.082 60.6345 181.833 59.2104C181.578 58.0702 182.975 56.6748 184.387 54.4279Z" fill="#EA0029" style="fill:#EA0029;fill:color(display-p3 0.9176 0.0000 0.1608);fill-opacity:1;"/>
<path d="M71.3568 82.5539C69.1368 83.9349 68.0145 85.3351 66.6425 85.3112C65.8193 85.2968 64.2026 83.5649 63.948 82.4246C63.4339 80.428 65.1051 79.0374 66.7466 79.35C68.393 79.3787 69.4658 80.8172 71.3568 82.5539Z" fill="#EA0029" style="fill:#EA0029;fill:color(display-p3 0.9176 0.0000 0.1608);fill-opacity:1;"/>
<path d="M97.7744 47.2369C95.8288 48.6227 94.7114 49.739 93.3344 49.9989C91.4086 50.2493 90.3358 48.8108 90.3705 46.8237C90.4051 44.8367 92.0863 42.8783 93.7228 43.4748C94.8055 44.3455 95.8833 45.5002 97.7744 47.2369Z" fill="#EA0029" style="fill:#EA0029;fill:color(display-p3 0.9176 0.0000 0.1608);fill-opacity:1;"/>
<path d="M126.911 170.697C125.574 168.686 124.221 167.526 123.967 166.386C123.453 164.389 124.844 163.278 126.77 163.028C128.422 162.772 130.587 164.514 130.004 166.491C129.435 167.617 128.318 168.733 126.911 170.697Z" fill="#EA0029" style="fill:#EA0029;fill:color(display-p3 0.9176 0.0000 0.1608);fill-opacity:1;"/>
<path d="M176.27 189.163C176.804 190.024 178.156 191.184 178.411 192.324C178.925 194.321 177.254 195.711 175.612 195.399C174.52 195.096 172.898 193.648 172.648 192.223C172.129 190.511 173.521 189.399 176.27 189.163Z" fill="#EA0029" style="fill:#EA0029;fill:color(display-p3 0.9176 0.0000 0.1608);fill-opacity:1;"/>
<path d="M89.7693 144.209C88.1575 142.193 86.8054 141.034 86.5558 139.61C86.3111 137.902 87.4335 136.501 89.3592 136.251C91.2801 136.285 92.6322 137.444 92.3231 139.426C92.2983 140.846 90.9065 141.957 89.7693 144.209Z" fill="#EA0029" style="fill:#EA0029;fill:color(display-p3 0.9176 0.0000 0.1608);fill-opacity:1;"/>
<path d="M25.5227 163.228C23.9109 161.212 22.5588 160.053 22.3092 158.629C22.0645 156.921 23.1869 155.521 25.1127 155.27C27.0335 155.304 28.3856 156.463 28.0765 158.445C28.0517 159.865 26.6599 160.976 25.5227 163.228Z" fill="#EA0029" style="fill:#EA0029;fill:color(display-p3 0.9176 0.0000 0.1608);fill-opacity:1;"/>
<path d="M150.269 43.3263C148.658 41.3105 147.3 40.435 146.776 39.0061C146.257 37.2933 148.213 35.3398 150.129 35.6572C152.045 35.9746 153.402 36.8501 153.093 38.8323C152.793 40.2469 151.676 41.3632 150.269 43.3263Z" fill="#EA0029" style="fill:#EA0029;fill:color(display-p3 0.9176 0.0000 0.1608);fill-opacity:1;"/>
<path d="M136.382 147.01C137.714 149.305 138.787 150.743 138.767 151.879C138.752 152.731 137.076 154.405 135.973 154.67C134.048 154.92 132.701 153.477 133.005 151.778C133.309 150.08 134.975 148.973 136.382 147.01Z" fill="#EA0029" style="fill:#EA0029;fill:color(display-p3 0.9176 0.0000 0.1608);fill-opacity:1;"/>
<path d="M131.393 149.762C129.448 151.148 128.33 152.264 127.228 152.529C125.302 152.779 123.416 150.759 123.999 148.781C124.293 147.651 125.975 145.692 126.793 145.991C128.429 146.587 129.502 148.026 131.393 149.762Z" fill="#EA0029" style="fill:#EA0029;fill:color(display-p3 0.9176 0.0000 0.1608);fill-opacity:1;"/>
<path d="M120.765 135.103C118.819 136.489 117.702 137.605 116.599 137.87C114.674 138.12 112.787 136.099 113.371 134.122C113.665 132.991 115.346 131.033 116.164 131.331C117.801 131.928 118.874 133.366 120.765 135.103Z" fill="#EA0029" style="fill:#EA0029;fill:color(display-p3 0.9176 0.0000 0.1608);fill-opacity:1;"/>
<path d="M188.699 153.318C187.367 151.023 186.015 149.864 185.765 148.44C185.525 146.448 186.922 145.053 188.833 145.654C189.926 145.957 191.268 147.684 191.253 148.536C191.503 149.96 190.111 151.071 188.699 153.318Z" fill="#EA0029" style="fill:#EA0029;fill:color(display-p3 0.9176 0.0000 0.1608);fill-opacity:1;"/>
<path d="M143.052 95.1635C144.384 97.4584 145.736 98.6177 145.711 100.037C145.697 100.889 144.02 102.563 143.192 102.833C141.262 103.367 139.914 101.924 140.223 99.9413C140.523 98.5267 141.64 97.4105 143.052 95.1635Z" fill="#EA0029" style="fill:#EA0029;fill:color(display-p3 0.9176 0.0000 0.1608);fill-opacity:1;"/>
<path d="M191.468 73.2924C189.248 74.6734 188.136 75.5059 187.033 75.7706C184.833 76.0161 182.942 74.2794 183.521 72.5858C183.815 71.4551 185.491 69.7807 186.309 70.0789C187.681 70.1028 188.754 71.5413 191.468 73.2924Z" fill="#EA0029" style="fill:#EA0029;fill:color(display-p3 0.9176 0.0000 0.1608);fill-opacity:1;"/>
<path d="M107.028 83.1765C108.645 84.9085 109.997 86.0678 110.252 87.2081C110.766 89.2047 109.369 90.6001 107.448 90.5665C106.351 90.5474 104.729 89.0993 104.474 87.9591C104.499 86.5397 105.896 85.1444 107.028 83.1765Z" fill="#EA0029" style="fill:#EA0029;fill:color(display-p3 0.9176 0.0000 0.1608);fill-opacity:1;"/>
<path d="M195.319 72.7917C196.931 74.8075 198.283 75.9669 198.538 77.1071C199.057 78.8199 197.371 81.062 195.455 80.7446C193.534 80.7111 192.461 79.2727 192.491 77.5695C193.065 76.1598 194.182 75.0434 195.319 72.7917Z" fill="#EA0029" style="fill:#EA0029;fill:color(display-p3 0.9176 0.0000 0.1608);fill-opacity:1;"/>
<path d="M144.653 144.883C144.119 144.022 142.762 143.146 142.512 141.722C141.998 139.725 143.395 138.33 145.316 138.364C147.236 138.397 148.319 139.268 148.559 141.26C148.519 143.531 147.676 144.652 144.653 144.883Z" fill="#EA0029" style="fill:#EA0029;fill:color(display-p3 0.9176 0.0000 0.1608);fill-opacity:1;"/>
<path d="M38.052 173.385C37.5181 172.524 36.161 171.648 35.9114 170.224C35.3972 168.228 36.794 166.832 38.7148 166.866C40.6357 166.899 41.7184 167.77 41.9581 169.762C41.9184 172.033 41.0754 173.154 38.052 173.385Z" fill="#EA0029" style="fill:#EA0029;fill:color(display-p3 0.9176 0.0000 0.1608);fill-opacity:1;"/>
<path d="M76.5172 180.039C74.2922 181.704 73.4443 183.109 72.0673 183.369C70.1415 183.619 68.7943 182.176 69.0984 180.478C69.3926 179.347 70.7944 177.668 71.6176 177.682C72.9945 177.422 74.3467 178.582 76.5172 180.039Z" fill="#EA0029" style="fill:#EA0029;fill:color(display-p3 0.9176 0.0000 0.1608);fill-opacity:1;"/>
<path d="M189.663 129.483C190.995 131.778 192.073 132.933 192.323 134.357C192.562 136.349 191.171 137.46 189.25 137.427C187.334 137.109 186.256 135.955 186.565 133.973C186.859 132.842 187.977 131.726 189.663 129.483Z" fill="#EA0029" style="fill:#EA0029;fill:color(display-p3 0.9176 0.0000 0.1608);fill-opacity:1;"/>
<path d="M82.2305 151.46C80.5593 152.85 79.4368 154.25 78.3392 154.231C77.2416 154.212 75.8944 152.769 75.6398 151.629C75.1257 149.632 76.5225 148.237 78.4383 148.554C79.5359 148.573 80.6088 150.012 82.2305 151.46Z" fill="#EA0029" style="fill:#EA0029;fill:color(display-p3 0.9176 0.0000 0.1608);fill-opacity:1;"/>
<path d="M169.951 126.584C168.011 127.686 167.168 128.807 166.065 129.071C164.139 129.322 163.067 127.883 163.101 125.896C163.136 123.909 164.802 122.802 166.439 123.399C167.531 123.702 168.33 125.136 169.951 126.584Z" fill="#EA0029" style="fill:#EA0029;fill:color(display-p3 0.9176 0.0000 0.1608);fill-opacity:1;"/>
<path d="M78.0675 91.1894C76.3963 92.58 75.5483 93.9849 74.4507 93.9658C72.525 94.2161 71.4521 92.7776 71.7612 90.7954C71.7959 88.8083 72.9183 87.4081 74.8292 88.0094C75.9219 88.3124 76.7202 89.7461 78.0675 91.1894Z" fill="#EA0029" style="fill:#EA0029;fill:color(display-p3 0.9176 0.0000 0.1608);fill-opacity:1;"/>
<path d="M130.925 35.038C129.857 33.3157 128.505 32.1563 128.525 31.0208C128.285 29.029 129.682 27.6336 131.593 28.2349C132.686 28.5379 134.028 30.265 134.278 31.6891C134.263 32.5407 132.322 33.6426 130.925 35.038Z" fill="#EA0029" style="fill:#EA0029;fill:color(display-p3 0.9176 0.0000 0.1608);fill-opacity:1;"/>
<path d="M186.566 165.491C187.908 167.218 189.534 168.382 189.52 169.234C189.5 170.369 188.103 171.765 186.995 172.313C185.334 173.136 183.448 171.116 183.747 169.701C184.316 168.575 185.433 167.459 186.566 165.491Z" fill="#EA0029" style="fill:#EA0029;fill:color(display-p3 0.9176 0.0000 0.1608);fill-opacity:1;"/>
<path d="M78.6293 121.866C79.9666 123.877 81.3238 124.753 81.3039 125.888C81.5437 127.88 80.1469 129.275 78.2359 128.674C77.1433 128.371 75.7961 126.928 75.8159 125.792C75.8308 124.941 77.2226 123.829 78.6293 121.866Z" fill="#EA0029" style="fill:#EA0029;fill:color(display-p3 0.9176 0.0000 0.1608);fill-opacity:1;"/>
<path d="M45.2401 147.691C43.0151 149.356 41.8977 150.472 40.5207 150.732C39.9719 150.722 38.3552 148.991 38.3651 148.423C38.6594 147.292 39.7867 145.608 40.6148 145.339C41.9918 145.079 43.0696 146.233 45.2401 147.691Z" fill="#EA0029" style="fill:#EA0029;fill:color(display-p3 0.9176 0.0000 0.1608);fill-opacity:1;"/>
<path d="M98.9852 40.7275C97.6479 38.7165 96.5652 37.8457 96.3106 36.7055C96.0659 34.9975 97.1833 33.8812 98.8297 33.9099C100.476 33.9387 101.833 34.8142 101.529 36.5126C101.509 37.6481 100.392 38.7644 98.9852 40.7275Z" fill="#EA0029" style="fill:#EA0029;fill:color(display-p3 0.9176 0.0000 0.1608);fill-opacity:1;"/>
<path d="M26.9793 93.1374C28.3216 94.8645 29.6738 96.0239 29.6589 96.8755C29.6391 98.0109 28.5117 99.695 27.4092 99.9597C25.7528 100.499 24.1262 99.3345 24.4353 97.3522C24.7295 96.2216 25.847 95.1053 26.9793 93.1374Z" fill="#EA0029" style="fill:#EA0029;fill:color(display-p3 0.9176 0.0000 0.1608);fill-opacity:1;"/>
<path d="M49.3045 166.503C50.6419 168.514 51.9941 169.673 52.2487 170.813C52.4933 172.521 51.3759 173.637 49.7295 173.609C47.8087 173.575 46.7359 172.137 47.0449 170.155C47.0598 169.303 48.1722 168.47 49.3045 166.503Z" fill="#EA0029" style="fill:#EA0029;fill:color(display-p3 0.9176 0.0000 0.1608);fill-opacity:1;"/>
<path d="M191.281 178.351C189.331 180.021 188.483 181.426 187.385 181.407C186.287 181.387 184.94 179.944 184.686 178.804C184.166 177.091 185.289 175.691 187.205 176.008C188.302 176.027 189.38 177.182 191.281 178.351Z" fill="#EA0029" style="fill:#EA0029;fill:color(display-p3 0.9176 0.0000 0.1608);fill-opacity:1;"/>
<path d="M152.866 177.681C153.929 179.687 155.276 181.13 154.986 181.977C154.692 183.107 153.3 184.219 152.198 184.484C150.542 185.023 148.93 183.007 149.783 181.318C150.077 180.187 151.464 179.36 152.866 177.681Z" fill="#EA0029" style="fill:#EA0029;fill:color(display-p3 0.9176 0.0000 0.1608);fill-opacity:1;"/>
<path d="M97.6891 52.0627C99.0264 54.0737 100.104 55.2284 100.359 56.3686C100.599 58.3605 99.2067 59.472 97.2908 59.1546C95.37 59.121 94.5715 57.6874 95.15 55.9938C95.1698 54.8584 96.2824 54.0259 97.6891 52.0627Z" fill="#EA0029" style="fill:#EA0029;fill:color(display-p3 0.9176 0.0000 0.1608);fill-opacity:1;"/>
<path d="M86.9986 177.099C88.331 179.394 89.4088 180.548 89.384 181.968C89.3692 182.819 87.698 184.21 86.5954 184.475C84.6696 184.725 83.6017 183.003 83.9059 181.304C84.4795 179.894 85.592 179.062 86.9986 177.099Z" fill="#EA0029" style="fill:#EA0029;fill:color(display-p3 0.9176 0.0000 0.1608);fill-opacity:1;"/>
<path d="M199.008 50.14C197.063 51.5258 195.94 52.9259 195.117 52.9116C194.024 52.6085 192.677 51.1653 192.418 50.3089C192.432 49.4573 193.834 47.7781 194.937 47.5134C196.039 47.2487 197.112 48.6871 199.008 50.14Z" fill="#EA0029" style="fill:#EA0029;fill:color(display-p3 0.9176 0.0000 0.1608);fill-opacity:1;"/>
<path d="M232.47 130.247C230.525 131.633 229.402 133.033 228.579 133.019C227.487 132.716 226.139 131.272 225.88 130.416C225.895 129.564 227.296 127.885 228.399 127.621C229.501 127.356 230.574 128.794 232.47 130.247Z" fill="#EA0029" style="fill:#EA0029;fill:color(display-p3 0.9176 0.0000 0.1608);fill-opacity:1;"/>
<path d="M130.486 123.055C129.423 121.049 128.346 119.894 128.096 118.47C128.126 116.767 129.238 115.935 131.159 115.968C133.08 116.002 133.878 117.435 133.574 119.134C133.28 120.264 131.893 121.092 130.486 123.055Z" fill="#EA0029" style="fill:#EA0029;fill:color(display-p3 0.9176 0.0000 0.1608);fill-opacity:1;"/>
<path d="M83.5333 29.6675C81.5927 30.7695 80.2009 31.8809 79.3777 31.8666C78.285 31.5636 77.761 30.1346 76.9576 28.9848C77.7957 28.1476 78.923 26.4636 79.7462 26.478C80.8438 26.4971 81.6423 27.9308 83.5333 29.6675Z" fill="#EA0029" style="fill:#EA0029;fill:color(display-p3 0.9176 0.0000 0.1608);fill-opacity:1;"/>
<path d="M55.1289 147.295C56.1919 149.302 57.5392 150.745 57.2499 151.592C56.9557 152.722 55.8333 154.123 54.7307 154.387C53.0744 154.926 51.4627 152.91 52.0412 151.217C52.3404 149.802 53.4528 148.97 55.1289 147.295Z" fill="#EA0029" style="fill:#EA0029;fill:color(display-p3 0.9176 0.0000 0.1608);fill-opacity:1;"/>
<path d="M105.206 156.12C102.991 157.217 101.874 158.334 100.776 158.314C99.1298 158.286 98.057 156.847 98.6355 155.154C98.9248 154.307 100.322 152.911 101.14 153.21C102.232 153.513 103.31 154.667 105.206 156.12Z" fill="#EA0029" style="fill:#EA0029;fill:color(display-p3 0.9176 0.0000 0.1608);fill-opacity:1;"/>
<path d="M69.171 50.4292C67.8288 48.7021 66.2022 47.5379 66.222 46.4025C66.2419 45.267 67.6386 43.8716 68.4668 43.6021C70.1231 43.0631 71.4753 44.2225 71.1712 45.9209C71.4208 47.345 70.3033 48.4614 69.171 50.4292Z" fill="#EA0029" style="fill:#EA0029;fill:color(display-p3 0.9176 0.0000 0.1608);fill-opacity:1;"/>
<path d="M193.787 66.2341C195.125 68.2451 196.203 69.3997 196.183 70.5352C196.163 71.6706 194.766 73.066 193.664 73.3307C192.012 73.5858 190.391 72.1378 190.974 70.1603C191.268 69.0296 192.381 68.1972 193.787 66.2341Z" fill="#EA0029" style="fill:#EA0029;fill:color(display-p3 0.9176 0.0000 0.1608);fill-opacity:1;"/>
<path d="M41.6762 84.5914C40.6034 83.1529 39.2462 82.2774 39.2611 81.4258C39.276 80.5742 40.4033 78.8902 41.2314 78.6207C42.8877 78.0817 44.2399 79.241 43.9358 80.9394C43.916 82.0749 42.7986 83.1913 41.6762 84.5914Z" fill="#EA0029" style="fill:#EA0029;fill:color(display-p3 0.9176 0.0000 0.1608);fill-opacity:1;"/>
<path d="M130.218 44.112C128.547 45.5025 127.699 46.9075 126.875 46.8931C125.778 46.874 124.984 45.1564 124.176 44.2905C125.014 43.4532 125.862 42.0483 126.965 41.7836C127.518 41.5093 128.591 42.9478 130.218 44.112Z" fill="#EA0029" style="fill:#EA0029;fill:color(display-p3 0.9176 0.0000 0.1608);fill-opacity:1;"/>
<path d="M25.7281 149.071C24.0569 150.461 23.2089 151.866 22.3856 151.852C21.288 151.833 20.4946 150.115 19.6862 149.249C20.5243 148.412 21.3723 147.007 22.4748 146.742C23.0286 146.468 24.1015 147.907 25.7281 149.071Z" fill="#EA0029" style="fill:#EA0029;fill:color(display-p3 0.9176 0.0000 0.1608);fill-opacity:1;"/>
<path d="M181.406 36.487C179.466 37.5889 178.623 38.71 177.525 38.6909C175.879 38.6621 174.526 37.5027 175.105 35.8091C175.394 34.9623 176.791 33.5669 177.614 33.5813C178.981 33.8891 179.785 35.0389 181.406 36.487Z" fill="#EA0029" style="fill:#EA0029;fill:color(display-p3 0.9176 0.0000 0.1608);fill-opacity:1;"/>
<path d="M65.6969 108.011C64.634 106.005 63.5513 105.134 63.2967 103.994C63.052 102.286 64.1744 100.885 66.0853 101.487C66.9035 101.785 68.2508 103.228 68.2359 104.08C68.2161 105.215 67.0987 106.332 65.6969 108.011Z" fill="#EA0029" style="fill:#EA0029;fill:color(display-p3 0.9176 0.0000 0.1608);fill-opacity:1;"/>
<path d="M112.941 216.169C113.999 218.459 115.077 219.614 114.783 220.744C114.768 221.596 112.822 222.982 112.273 222.972C111.181 222.669 109.833 221.226 109.853 220.09C109.873 218.955 111.26 218.127 112.941 216.169Z" fill="#EA0029" style="fill:#EA0029;fill:color(display-p3 0.9176 0.0000 0.1608);fill-opacity:1;"/>
<path d="M86.3225 121.433C85.2646 119.143 84.1868 117.988 84.2066 116.853C84.2215 116.001 86.172 114.331 86.7159 114.625C87.8085 114.928 89.1558 116.371 89.1359 117.506C89.3955 118.363 88.0036 119.474 86.3225 121.433Z" fill="#EA0029" style="fill:#EA0029;fill:color(display-p3 0.9176 0.0000 0.1608);fill-opacity:1;"/>
<path d="M40.9548 62.9985C39.6175 60.9875 38.2653 59.8281 38.5595 58.6974C38.8537 57.5667 40.2456 56.4552 41.3481 56.1905C41.9019 55.9162 43.5185 57.6481 43.5037 58.4997C43.4789 59.919 42.092 60.7467 40.9548 62.9985Z" fill="#EA0029" style="fill:#EA0029;fill:color(display-p3 0.9176 0.0000 0.1608);fill-opacity:1;"/>
<path d="M81.0917 185.23C82.429 187.241 83.7812 188.4 83.7614 189.536C83.7465 190.388 82.6241 191.788 81.7959 192.057C80.1396 192.596 78.7875 191.437 78.8172 189.734C78.837 188.598 79.9544 187.482 81.0917 185.23Z" fill="#EA0029" style="fill:#EA0029;fill:color(display-p3 0.9176 0.0000 0.1608);fill-opacity:1;"/>
<path d="M106.337 185.671C104.391 187.057 103.543 188.462 102.446 188.443C101.348 188.423 100.006 186.696 99.7463 185.84C99.7612 184.988 101.163 183.309 102.266 183.044C103.089 183.059 104.436 184.502 106.337 185.671Z" fill="#EA0029" style="fill:#EA0029;fill:color(display-p3 0.9176 0.0000 0.1608);fill-opacity:1;"/>
<path d="M91.6797 66.1555C90.3424 64.1445 88.9902 62.9851 89.2795 62.1383C89.2993 61.0029 90.9606 60.18 91.7986 59.3428C92.607 60.2088 94.2385 61.0891 94.2187 62.2246C94.2038 63.0761 93.0864 64.1924 91.6797 66.1555Z" fill="#EA0029" style="fill:#EA0029;fill:color(display-p3 0.9176 0.0000 0.1608);fill-opacity:1;"/>
<path d="M68.2222 73.4126C69.8934 72.022 71.0157 70.6219 71.8389 70.6362C72.6621 70.6506 74.0094 72.0938 74.2689 72.9502C74.788 74.663 73.3912 76.0584 71.7497 75.7458C70.9315 75.4475 69.8488 74.5768 68.2222 73.4126Z" fill="#EA0029" style="fill:#EA0029;fill:color(display-p3 0.9176 0.0000 0.1608);fill-opacity:1;"/>
<path d="M87.9635 27.4733C86.8956 25.751 85.5435 24.5915 85.5633 23.4561C85.5782 22.6045 86.7005 21.2043 87.8031 20.9396C89.185 20.3958 91.0711 22.4164 90.772 23.8309C90.2033 24.9568 89.0909 25.7893 87.9635 27.4733Z" fill="#EA0029" style="fill:#EA0029;fill:color(display-p3 0.9176 0.0000 0.1608);fill-opacity:1;"/>
<path d="M105.633 178.844C107.568 178.026 108.686 176.909 109.784 176.929C110.607 176.943 111.126 178.656 111.934 179.522C110.822 180.354 109.979 181.475 108.602 181.735C108.043 182.293 107.249 180.576 105.633 178.844Z" fill="#EA0029" style="fill:#EA0029;fill:color(display-p3 0.9176 0.0000 0.1608);fill-opacity:1;"/>
<path d="M90.7384 72.9539C88.7978 74.0559 87.6804 75.1721 86.8572 75.1578C86.034 75.1434 84.9612 73.7049 84.7066 72.5647C84.4619 70.8567 85.8537 69.7452 87.4952 70.0578C88.5879 70.3608 89.1168 71.5059 90.7384 72.9539Z" fill="#EA0029" style="fill:#EA0029;fill:color(display-p3 0.9176 0.0000 0.1608);fill-opacity:1;"/>
<path d="M81.9256 137.541C80.2593 138.648 79.137 140.048 78.3138 140.033C77.4905 140.019 75.8738 138.287 76.1581 137.724C76.4523 136.594 77.5747 135.193 78.6773 134.929C79.231 134.654 80.299 136.377 81.9256 137.541Z" fill="#EA0029" style="fill:#EA0029;fill:color(display-p3 0.9176 0.0000 0.1608);fill-opacity:1;"/>
<path d="M62.7822 101.997C61.1159 103.104 59.7192 104.499 59.1753 104.206C58.0876 103.619 57.0099 102.464 56.7602 101.04C56.4957 100.467 58.4462 98.7978 58.9951 98.8073C60.0828 99.3942 60.8861 100.544 62.7822 101.997Z" fill="#EA0029" style="fill:#EA0029;fill:color(display-p3 0.9176 0.0000 0.1608);fill-opacity:1;"/>
<path d="M86.9922 83.1107C85.326 84.2174 83.9292 85.6128 83.1109 85.3146C82.0183 85.0116 80.9454 83.5731 80.9652 82.4376C80.7205 80.7296 82.3868 79.6229 84.0233 80.2193C84.5672 80.5128 85.3706 81.6626 86.9922 83.1107Z" fill="#EA0029" style="fill:#EA0029;fill:color(display-p3 0.9176 0.0000 0.1608);fill-opacity:1;"/>
<path d="M69.6289 197.24C68.2965 194.945 67.2187 193.79 66.9642 192.65C66.7195 190.942 68.1163 189.547 69.7528 190.143C70.571 190.442 71.9183 191.885 71.9035 192.736C72.158 193.877 71.0406 194.993 69.6289 197.24Z" fill="#EA0029" style="fill:#EA0029;fill:color(display-p3 0.9176 0.0000 0.1608);fill-opacity:1;"/>
<path d="M31.1123 76.4562C30.5189 79.0014 30.7487 81.5611 27.7303 81.5084C27.1815 81.4988 25.8343 80.0555 25.8491 79.2039C26.178 76.0862 28.6377 76.697 31.1123 76.4562Z" fill="#EA0029" style="fill:#EA0029;fill:color(display-p3 0.9176 0.0000 0.1608);fill-opacity:1;"/>
<path d="M120.976 70.3583C119.031 71.7441 117.913 72.8604 116.811 73.1251C115.988 73.1107 114.64 71.6674 114.655 70.8158C114.67 69.9642 115.798 68.2802 116.621 68.2946C117.449 68.0251 118.801 69.1845 120.976 70.3583Z" fill="#EA0029" style="fill:#EA0029;fill:color(display-p3 0.9176 0.0000 0.1608);fill-opacity:1;"/>
<path d="M21.5597 89.0917C19.6141 90.4775 18.4967 91.5938 17.3941 91.8585C16.5709 91.8441 15.2237 90.4008 15.2386 89.5492C15.2534 88.6976 16.3808 87.0136 17.204 87.028C18.0322 86.7585 19.3843 87.9179 21.5597 89.0917Z" fill="#EA0029" style="fill:#EA0029;fill:color(display-p3 0.9176 0.0000 0.1608);fill-opacity:1;"/>
<path d="M99.2802 165.387C100.348 167.11 101.151 168.259 101.676 169.688C101.671 169.972 100.274 171.367 99.725 171.358C98.0786 171.329 96.7264 170.17 97.0355 168.188C96.771 167.615 97.8835 166.783 99.2802 165.387Z" fill="#EA0029" style="fill:#EA0029;fill:color(display-p3 0.9176 0.0000 0.1608);fill-opacity:1;"/>
<path d="M56.0504 94.4968C54.3841 95.6035 53.5362 97.0084 52.713 96.994C51.8898 96.9797 50.5425 95.5364 50.5574 94.6848C50.5722 93.8332 51.6947 92.433 52.5179 92.4474C53.346 92.1779 54.4188 93.6164 56.0504 94.4968Z" fill="#EA0029" style="fill:#EA0029;fill:color(display-p3 0.9176 0.0000 0.1608);fill-opacity:1;"/>
<path d="M96.0006 23.0703C97.0734 24.5088 98.4306 25.3843 98.4157 26.2359C98.4008 27.0875 97.2785 28.4877 96.4503 28.7572C94.794 29.2962 93.7212 27.8576 93.746 26.4383C93.7658 25.3028 94.8782 24.4705 96.0006 23.0703Z" fill="#EA0029" style="fill:#EA0029;fill:color(display-p3 0.9176 0.0000 0.1608);fill-opacity:1;"/>
<path d="M103.229 143.592C102.161 141.87 101.083 140.715 101.373 139.868C101.388 139.017 102.784 137.621 103.608 137.635C105.259 137.38 106.332 138.819 105.753 140.512C105.459 141.643 104.351 142.192 103.229 143.592Z" fill="#EA0029" style="fill:#EA0029;fill:color(display-p3 0.9176 0.0000 0.1608);fill-opacity:1;"/>
<path d="M165.884 220.517C164.816 218.795 163.738 217.64 164.028 216.793C164.043 215.942 165.439 214.546 166.263 214.561C167.914 214.306 168.987 215.744 168.408 217.438C168.114 218.568 167.007 219.117 165.884 220.517Z" fill="#EA0029" style="fill:#EA0029;fill:color(display-p3 0.9176 0.0000 0.1608);fill-opacity:1;"/>
<path d="M69.9636 36.5295C68.2974 37.6362 67.4543 38.7573 66.6311 38.7429C65.8079 38.7285 64.4657 37.0014 64.4756 36.4337C64.4905 35.5821 65.8872 34.1868 66.7104 34.2011C67.5386 33.9316 68.337 35.3653 69.9636 36.5295Z" fill="#EA0029" style="fill:#EA0029;fill:color(display-p3 0.9176 0.0000 0.1608);fill-opacity:1;"/>
<path d="M66.9001 117.686C65.5578 115.959 64.48 114.804 64.4949 113.953C64.5097 113.101 65.9015 111.99 66.7297 111.72C67.0091 111.441 68.6307 112.889 68.6159 113.741C68.8704 114.881 68.0274 116.002 66.9001 117.686Z" fill="#EA0029" style="fill:#EA0029;fill:color(display-p3 0.9176 0.0000 0.1608);fill-opacity:1;"/>
<path d="M185.043 126.847C183.377 127.954 182.539 128.791 181.441 128.772C180.618 128.757 179.271 127.314 179.555 126.751C179.85 125.621 180.972 124.22 181.795 124.235C182.344 124.244 183.417 125.683 185.043 126.847Z" fill="#EA0029" style="fill:#EA0029;fill:color(display-p3 0.9176 0.0000 0.1608);fill-opacity:1;"/>
<path d="M60.9046 178.063C59.8318 176.625 58.4796 175.465 58.4945 174.614C58.5093 173.762 59.9061 172.367 60.7343 172.097C61.5575 172.111 62.9047 173.555 63.1642 174.411C63.1494 175.263 61.7576 176.374 60.9046 178.063Z" fill="#EA0029" style="fill:#EA0029;fill:color(display-p3 0.9176 0.0000 0.1608);fill-opacity:1;"/>
<path d="M40.5621 195.577C39.4893 194.139 38.1371 192.979 38.1519 192.128C38.1668 191.276 39.5636 189.881 40.3917 189.611C41.2149 189.625 42.5622 191.069 42.8217 191.925C42.8068 192.777 41.415 193.888 40.5621 195.577Z" fill="#EA0029" style="fill:#EA0029;fill:color(display-p3 0.9176 0.0000 0.1608);fill-opacity:1;"/>
<path d="M122.536 216.904C120.87 218.011 119.752 219.127 118.934 218.829C117.841 218.526 117.043 217.092 116.24 215.943C117.347 215.394 118.19 214.273 119.288 214.292C120.111 214.306 120.909 215.74 122.536 216.904Z" fill="#EA0029" style="fill:#EA0029;fill:color(display-p3 0.9176 0.0000 0.1608);fill-opacity:1;"/>
<path d="M125.406 99.6825C123.739 100.789 122.891 102.194 122.073 101.896C121.25 101.882 120.177 100.443 119.923 99.3028C119.933 98.7351 121.329 97.3397 121.878 97.3493C122.971 97.6523 124.049 98.8069 125.406 99.6825Z" fill="#EA0029" style="fill:#EA0029;fill:color(display-p3 0.9176 0.0000 0.1608);fill-opacity:1;"/>
<path d="M94.6714 177.801C95.769 177.82 96.8716 177.555 97.9642 177.858C98.7825 178.156 99.3065 179.585 99.2917 180.437C99.2818 181.005 98.1594 182.405 97.6105 182.395C96.7873 182.381 95.4253 181.789 95.1657 180.933C94.9062 180.076 94.9309 178.657 94.6714 177.801Z" fill="#EA0029" style="fill:#EA0029;fill:color(display-p3 0.9176 0.0000 0.1608);fill-opacity:1;"/>
<path d="M81.6364 59.7333C82.7042 61.4556 83.7821 62.6102 83.4928 63.457C83.2035 64.3038 82.0911 65.1363 80.9835 65.6849C80.7091 65.6801 79.3619 64.2368 79.3718 63.669C79.666 62.5384 80.5041 61.7012 81.6364 59.7333Z" fill="#EA0029" style="fill:#EA0029;fill:color(display-p3 0.9176 0.0000 0.1608);fill-opacity:1;"/>
<path d="M52.2681 91.0233C52.0135 89.883 50.9308 89.0123 51.225 87.8817C51.5192 86.751 52.3573 85.9137 53.1904 85.3604C53.4698 85.0813 55.3658 86.5341 55.3559 87.1019C55.3361 88.2373 54.498 89.0746 53.9294 90.2005C53.3756 90.4747 52.8218 90.749 52.2681 91.0233Z" fill="#EA0029" style="fill:#EA0029;fill:color(display-p3 0.9176 0.0000 0.1608);fill-opacity:1;"/>
<path d="M158.874 163.588C156.939 164.406 156.101 165.243 155.277 165.229C154.729 165.219 153.386 163.492 153.666 163.213C153.955 162.366 155.077 160.966 155.901 160.98C156.449 160.99 157.253 162.14 158.874 163.588Z" fill="#EA0029" style="fill:#EA0029;fill:color(display-p3 0.9176 0.0000 0.1608);fill-opacity:1;"/>
<path d="M191.43 203.322C189.495 204.14 188.657 204.977 187.833 204.962C187.285 204.953 185.942 203.226 186.222 202.947C186.511 202.1 187.633 200.7 188.456 200.714C189.005 200.724 189.809 201.873 191.43 203.322Z" fill="#EA0029" style="fill:#EA0029;fill:color(display-p3 0.9176 0.0000 0.1608);fill-opacity:1;"/>
<path d="M53.3622 138.462C51.696 139.569 50.8529 140.69 49.7503 140.955C48.9271 140.94 47.5799 139.497 47.5849 139.213C47.8791 138.082 48.7271 136.677 49.5503 136.692C50.6578 136.143 51.7356 137.298 53.3622 138.462Z" fill="#EA0029" style="fill:#EA0029;fill:color(display-p3 0.9176 0.0000 0.1608);fill-opacity:1;"/>
<path d="M28.5524 128.79C26.8861 129.897 26.0431 131.018 24.9405 131.282C24.1173 131.268 22.7701 129.825 22.775 129.541C23.0693 128.41 23.9173 127.005 24.7405 127.02C25.848 126.471 26.9258 127.626 28.5524 128.79Z" fill="#EA0029" style="fill:#EA0029;fill:color(display-p3 0.9176 0.0000 0.1608);fill-opacity:1;"/>
<path d="M122.871 24.6752C121.474 26.0705 120.357 27.1868 119.808 27.1772C118.985 27.1629 117.912 25.7244 117.652 24.868C117.388 24.2955 118.785 22.9001 119.338 22.6258C120.157 22.924 121.239 23.7948 122.871 24.6752Z" fill="#EA0029" style="fill:#EA0029;fill:color(display-p3 0.9176 0.0000 0.1608);fill-opacity:1;"/>
<path d="M144.801 120.75C143.733 119.027 142.93 117.877 142.945 117.026C142.955 116.458 144.351 115.063 144.9 115.072C145.719 115.37 147.071 116.53 147.056 117.381C147.315 118.238 146.203 119.07 144.801 120.75Z" fill="#EA0029" style="fill:#EA0029;fill:color(display-p3 0.9176 0.0000 0.1608);fill-opacity:1;"/>
<path d="M67.397 152.053C65.7308 153.16 64.8828 154.565 64.0646 154.266C63.2414 154.252 62.1685 152.813 61.909 151.957C61.6445 151.385 63.0413 149.989 63.8645 150.004C64.6877 150.018 65.496 150.884 67.397 152.053Z" fill="#EA0029" style="fill:#EA0029;fill:color(display-p3 0.9176 0.0000 0.1608);fill-opacity:1;"/>
<path d="M65.1015 94.9385C63.1658 95.7566 62.0483 96.8729 61.4995 96.8633C60.6813 96.565 59.8829 95.1314 59.6233 94.275C59.6283 93.9911 61.0251 92.5957 61.8483 92.6101C62.6715 92.6245 63.4798 93.4905 65.1015 94.9385Z" fill="#EA0029" style="fill:#EA0029;fill:color(display-p3 0.9176 0.0000 0.1608);fill-opacity:1;"/>
<path d="M111.742 33.2833C110.355 34.1109 109.512 35.232 108.963 35.2224C108.14 35.208 107.616 33.7792 107.077 33.2019C107.91 32.6485 108.479 31.5226 109.302 31.537C109.861 30.9788 110.39 32.1239 111.742 33.2833Z" fill="#EA0029" style="fill:#EA0029;fill:color(display-p3 0.9176 0.0000 0.1608);fill-opacity:1;"/>
<path d="M57.7325 139.674C58.8152 140.545 60.1723 141.421 60.1624 141.988C59.8732 142.835 59.0351 143.672 58.197 144.51C57.3837 143.927 56.296 143.341 56.3109 142.489C56.0514 141.633 57.1638 140.8 57.7325 139.674Z" fill="#EA0029" style="fill:#EA0029;fill:color(display-p3 0.9176 0.0000 0.1608);fill-opacity:1;"/>
<path d="M34.3216 178.147C35.4043 179.018 36.7615 179.893 36.7515 180.461C36.4623 181.308 35.6242 182.145 34.7861 182.982C33.9728 182.4 32.8852 181.813 32.9 180.962C32.6405 180.105 33.753 179.273 34.3216 178.147Z" fill="#EA0029" style="fill:#EA0029;fill:color(display-p3 0.9176 0.0000 0.1608);fill-opacity:1;"/>
<path d="M104.376 62.1178C103.299 60.9632 101.941 60.0877 101.946 59.8038C102.241 58.6731 103.348 58.1246 103.912 57.2826C104.725 57.8647 105.808 58.7354 105.798 59.3031C106.062 59.8756 104.945 60.9919 104.376 62.1178Z" fill="#EA0029" style="fill:#EA0029;fill:color(display-p3 0.9176 0.0000 0.1608);fill-opacity:1;"/>
<path d="M139.963 20.4302C138.851 21.2626 138.008 22.3837 137.459 22.3741C136.636 22.3598 136.107 21.2147 135.294 20.6326C135.857 19.7906 136.426 18.6647 137.249 18.6791C137.803 18.4048 138.606 19.5546 139.963 20.4302Z" fill="#EA0029" style="fill:#EA0029;fill:color(display-p3 0.9176 0.0000 0.1608);fill-opacity:1;"/>
<path d="M35.049 71.1299C33.9812 69.4075 32.8984 68.5368 32.6389 67.6804C32.6488 67.1127 33.7711 65.7125 34.5944 65.7269C35.4176 65.7413 36.7748 66.6168 36.7599 67.4684C36.745 68.32 35.902 69.4411 35.049 71.1299Z" fill="#EA0029" style="fill:#EA0029;fill:color(display-p3 0.9176 0.0000 0.1608);fill-opacity:1;"/>
<path d="M64.524 190.904C62.8628 191.727 61.7502 192.559 61.2014 192.55C60.3832 192.252 59.5798 191.102 58.7715 190.236C59.3302 189.678 60.1732 188.556 60.727 188.282C61.5453 188.58 62.3536 189.446 64.524 190.904Z" fill="#EA0029" style="fill:#EA0029;fill:color(display-p3 0.9176 0.0000 0.1608);fill-opacity:1;"/>
<path d="M155.32 147.057C153.933 147.884 153.09 149.005 152.546 148.712C151.728 148.414 151.199 147.269 150.94 146.412C150.945 146.129 152.336 145.017 152.885 145.027C153.434 145.036 153.968 145.897 155.32 147.057Z" fill="#EA0029" style="fill:#EA0029;fill:color(display-p3 0.9176 0.0000 0.1608);fill-opacity:1;"/>
<path d="M145.135 211.62C143.749 212.447 142.906 213.568 142.087 213.27C141.264 213.256 140.191 211.817 140.476 211.254C140.49 210.403 141.882 209.291 142.431 209.301C143.249 209.599 144.053 210.749 145.135 211.62Z" fill="#EA0029" style="fill:#EA0029;fill:color(display-p3 0.9176 0.0000 0.1608);fill-opacity:1;"/>
<path d="M54.2933 163.75C52.9064 164.578 52.0683 165.415 51.5195 165.405C50.7013 165.107 50.1723 163.962 49.9127 163.106C49.9177 162.822 51.3095 161.71 51.8584 161.72C52.6816 161.734 53.2155 162.595 54.2933 163.75Z" fill="#EA0029" style="fill:#EA0029;fill:color(display-p3 0.9176 0.0000 0.1608);fill-opacity:1;"/>
<path d="M29.2286 168.688C27.8417 169.515 27.0036 170.353 26.4548 170.343C25.6366 170.045 25.1076 168.9 24.848 168.043C24.853 167.76 26.2448 166.648 26.7937 166.658C27.6169 166.672 28.1508 167.533 29.2286 168.688Z" fill="#EA0029" style="fill:#EA0029;fill:color(display-p3 0.9176 0.0000 0.1608);fill-opacity:1;"/>
<path d="M105.992 48.2325C105.188 47.0826 104.1 46.4958 104.11 45.928C104.4 45.0812 105.238 44.244 106.071 43.6906C106.35 43.4115 107.972 44.8596 107.692 45.1387C107.678 45.9903 106.84 46.8275 105.992 48.2325Z" fill="#EA0029" style="fill:#EA0029;fill:color(display-p3 0.9176 0.0000 0.1608);fill-opacity:1;"/>
<path d="M164.887 39.3222C164.088 37.8885 163.28 37.0225 163.02 36.1661C163.03 35.5984 164.148 34.4822 164.696 34.4918C165.245 34.5013 166.328 35.3721 166.318 35.9398C166.578 36.7962 165.74 37.6334 164.887 39.3222Z" fill="#EA0029" style="fill:#EA0029;fill:color(display-p3 0.9176 0.0000 0.1608);fill-opacity:1;"/>
<path d="M62.2154 40.0853C61.1079 40.6339 60.2697 41.4711 59.7209 41.4616C58.9076 40.8795 58.6482 40.0231 58.1142 39.1619C58.9424 38.8924 59.506 38.0504 60.0548 38.06C60.878 38.0744 61.407 39.2194 62.2154 40.0853Z" fill="#EA0029" style="fill:#EA0029;fill:color(display-p3 0.9176 0.0000 0.1608);fill-opacity:1;"/>
<path d="M101.714 198.936C102.552 198.099 103.395 196.978 103.665 197.266C104.483 197.564 105.017 198.426 105.556 199.003C104.997 199.561 104.434 200.403 103.88 200.677C103.336 200.384 102.802 199.523 101.714 198.936Z" fill="#EA0029" style="fill:#EA0029;fill:color(display-p3 0.9176 0.0000 0.1608);fill-opacity:1;"/>
<path d="M65.8259 69.1116C66.6293 70.2614 67.4425 70.8435 67.4326 71.4112C67.4276 71.6951 66.5846 72.8162 66.3102 72.8114C65.487 72.797 64.6738 72.2149 64.4093 71.6424C64.4192 71.0747 65.2572 70.2375 65.8259 69.1116Z" fill="#EA0029" style="fill:#EA0029;fill:color(display-p3 0.9176 0.0000 0.1608);fill-opacity:1;"/>
<path d="M47.5264 158.237C46.4189 158.785 45.5808 159.623 45.037 159.329C44.4931 159.036 43.6848 158.17 43.6947 157.602C43.7046 157.034 44.817 156.202 45.3658 156.211C46.1841 156.51 46.7181 157.371 47.5264 158.237Z" fill="#EA0029" style="fill:#EA0029;fill:color(display-p3 0.9176 0.0000 0.1608);fill-opacity:1;"/>
<path d="M34.366 157.419C33.2585 157.968 32.4204 158.805 31.8766 158.512C31.3327 158.218 30.5244 157.352 30.5343 156.785C30.5442 156.217 31.6566 155.384 32.2054 155.394C33.0237 155.692 33.5577 156.553 34.366 157.419Z" fill="#EA0029" style="fill:#EA0029;fill:color(display-p3 0.9176 0.0000 0.1608);fill-opacity:1;"/>
<path d="M156.032 216.353C155.194 217.19 154.631 218.032 154.082 218.023C153.807 218.018 152.725 217.147 152.73 216.863C153.014 216.301 153.578 215.459 154.131 215.184C154.406 215.189 154.945 215.766 156.032 216.353Z" fill="#EA0029" style="fill:#EA0029;fill:color(display-p3 0.9176 0.0000 0.1608);fill-opacity:1;"/>
<path d="M129.465 87.2595C129.989 88.6884 130.527 89.2657 130.513 90.1173C130.503 90.685 129.39 91.5174 129.121 91.2288C128.577 90.9353 127.494 90.0646 127.504 89.4968C127.514 88.9291 128.347 88.3758 129.465 87.2595Z" fill="#EA0029" style="fill:#EA0029;fill:color(display-p3 0.9176 0.0000 0.1608);fill-opacity:1;"/>
<path d="M16.4121 132.402C16.9361 133.831 17.475 134.408 17.4601 135.26C17.4502 135.828 16.3377 136.66 16.0683 136.371C15.5244 136.078 14.4417 135.207 14.4516 134.64C14.4615 134.072 15.2946 133.518 16.4121 132.402Z" fill="#EA0029" style="fill:#EA0029;fill:color(display-p3 0.9176 0.0000 0.1608);fill-opacity:1;"/>
<path d="M122.05 197.587C123.142 197.89 123.96 198.188 125.053 198.491C124.494 199.05 123.936 199.608 123.372 200.45C122.843 199.305 122.584 198.448 122.05 197.587Z" fill="#EA0029" style="fill:#EA0029;fill:color(display-p3 0.9176 0.0000 0.1608);fill-opacity:1;"/>
<path d="M24.8776 87.7055C25.7156 86.8682 26 86.3053 26.5488 86.3149C27.0976 86.3245 27.6365 86.9018 28.1803 87.1953C27.6216 87.7534 27.3324 88.6002 26.7736 89.1583C26.4992 89.1535 25.6909 88.2876 24.8776 87.7055Z" fill="#EA0029" style="fill:#EA0029;fill:color(display-p3 0.9176 0.0000 0.1608);fill-opacity:1;"/>
<path d="M153.271 107.268C154.079 108.134 154.893 108.716 154.883 109.284C154.873 109.851 154.04 110.405 153.76 110.684C153.486 110.679 152.673 110.097 152.678 109.813C152.692 108.961 152.977 108.399 153.271 107.268Z" fill="#EA0029" style="fill:#EA0029;fill:color(display-p3 0.9176 0.0000 0.1608);fill-opacity:1;"/>
<path d="M24.2714 106.72C23.7473 105.291 23.2035 104.998 23.2134 104.43C23.2184 104.146 23.7771 103.588 24.3259 103.597C24.6003 103.602 25.4136 104.184 25.4087 104.468C25.1293 104.747 24.8449 105.31 24.2714 106.72Z" fill="#EA0029" style="fill:#EA0029;fill:color(display-p3 0.9176 0.0000 0.1608);fill-opacity:1;"/>
<path d="M119.399 19.2195C118.566 19.7728 118.007 20.331 118.007 20.331C117.463 20.0375 117.199 19.465 116.934 18.8925C116.934 18.8925 117.777 17.7714 118.047 18.0601C118.321 18.0649 118.586 18.6374 119.399 19.2195Z" fill="#EA0029" style="fill:#EA0029;fill:color(display-p3 0.9176 0.0000 0.1608);fill-opacity:1;"/>
</svg>
