<svg width="1789" height="251" viewBox="0 0 1789 251" fill="none" xmlns="http://www.w3.org/2000/svg">
<g clip-path="url(#clip0_19_10327)">
<g clip-path="url(#clip1_19_10327)">
<path fill-rule="evenodd" clip-rule="evenodd" d="M0 183.043C0 183.043 64 185.607 168.5 123.879C273 62.1513 355.4 7.69655 515 0.390456C674.6 -6.91563 825.4 90.461 985 112.379C1144.6 134.297 1187.5 34.3792 1358 34.3792C1528.5 34.3792 1518 183.043 1789 183.043V250.879H1394.6C1315.4 250.879 1154.6 250.879 995 250.879C835.4 250.879 674.6 250.879 515 250.879C355.4 250.879 194.6 250.879 115.4 250.879H0V183.043Z" fill="#EA0029" style="fill:#EA0029;fill:color(display-p3 0.9176 0.0000 0.1608);fill-opacity:1;"/>
</g>
</g>
<defs>
<clipPath id="clip0_19_10327">
<rect width="1789" height="251" fill="white" style="fill:white;fill:white;fill-opacity:1;"/>
</clipPath>
<clipPath id="clip1_19_10327">
<rect width="1789" height="250.879" fill="white" style="fill:white;fill:white;fill-opacity:1;"/>
</clipPath>
</defs>
</svg>
