<svg width="336" height="246" viewBox="0 0 336 246" fill="none" xmlns="http://www.w3.org/2000/svg">
<path d="M321.32 105.034C321.32 105.034 326.911 107.175 324.532 113.955C320.13 126.802 299.314 158.324 290.749 158.324C281.709 158.324 298.481 123.59 298.481 123.59C298.481 123.59 300.265 117.643 294.556 117.524C294.556 117.524 295.983 109.078 286.824 109.078C271.836 109.078 244.953 146.31 244.953 163.915C244.953 170.457 247.094 167.959 249.711 170.576C252.328 173.193 251.495 174.263 254.588 174.263C259.227 174.263 277.07 151.068 277.07 151.068C277.07 151.068 276.118 163.558 283.255 163.558C285.04 163.558 283.731 170.457 293.247 170.457C303.12 170.457 335.832 133.225 335.832 112.885C335.832 98.3726 321.32 105.034 321.32 105.034ZM255.778 160.346C248.641 160.346 277.784 115.858 287.419 115.858C296.34 115.858 259.703 160.346 255.778 160.346Z" fill="#EB0029" style="fill:#EB0029;fill:color(display-p3 0.9216 0.0000 0.1608);fill-opacity:1;"/>
<path d="M273.858 36.28C273.858 36.28 279.449 38.4211 277.07 45.2014C272.668 58.0481 251.852 89.5702 243.288 89.5702C234.247 89.5702 251.019 54.8364 251.019 54.8364C251.019 54.8364 252.804 48.8889 247.094 48.7699C247.094 48.7699 248.521 40.3244 239.362 40.3244C230.203 40.3244 216.642 54.1227 207.483 68.9916C205.223 71.3706 174.772 104.201 167.397 104.201C162.401 104.201 163.709 99.2052 163.709 96.4693C163.709 81.9573 201.298 8.80233 216.524 8.80233C218.308 8.80233 218.308 9.51601 218.308 9.51601C218.308 9.51601 219.497 3.33057 209.268 3.33057C191.544 3.33057 150.863 70.6569 149.554 95.9935C149.078 105.034 151.1 105.748 153.242 107.294C155.621 108.959 156.096 108.84 157.881 112.171C159.665 115.383 164.304 115.977 166.802 115.977C178.816 115.977 194.161 97.421 197.729 93.0198C197.61 93.7335 197.61 94.4472 197.61 95.1609C197.61 101.703 199.751 99.2052 202.368 101.822C204.985 104.439 204.153 105.51 207.245 105.51C211.884 105.51 229.727 82.3141 229.727 82.3141C229.727 82.3141 228.776 94.804 235.913 94.804C237.697 94.804 236.388 101.703 245.905 101.703C255.777 101.703 288.489 64.4715 288.489 44.1308C288.37 29.6188 273.858 36.28 273.858 36.28ZM208.316 91.5923C201.179 91.5923 230.322 47.1046 239.957 47.1046C248.878 47.1046 212.241 91.5923 208.316 91.5923Z" fill="#EB0029" style="fill:#EB0029;fill:color(display-p3 0.9216 0.0000 0.1608);fill-opacity:1;"/>
<path d="M146.699 0C121.244 0 78.7781 51.3869 78.7781 93.4957C78.7781 108.959 82.1087 124.661 100.308 124.661C126.24 124.661 164.661 59.9514 164.661 25.9314C164.661 10.7056 162.044 0 146.699 0ZM150.387 40.8003C147.056 56.026 118.627 114.907 98.286 114.907C93.2901 114.907 90.6732 109.435 90.6732 102.893C90.6732 50.6732 136.588 13.2036 145.153 13.2036C152.052 13.2036 155.145 19.0322 150.387 40.8003Z" fill="#EB0029" style="fill:#EB0029;fill:color(display-p3 0.9216 0.0000 0.1608);fill-opacity:1;"/>
<path d="M56.7723 124.661C56.7723 124.661 59.5081 126.921 57.8428 130.013C56.0586 133.106 3.839 204.239 0.508368 222.201C-1.63275 233.382 3.48213 231.955 6.69381 234.572C10.3813 237.545 8.59705 245.396 16.5668 245.991C29.4135 246.942 74.9718 209.473 91.506 210.781C94.1229 211.019 93.7661 211.971 93.7661 211.971C93.7661 211.971 98.4052 201.027 87.5806 200.195C63.9093 198.41 26.7966 230.646 17.8752 229.932C5.14747 228.981 69.1432 148.689 70.0948 136.318C71.1653 121.806 56.7723 124.661 56.7723 124.661Z" fill="#EB0029" style="fill:#EB0029;fill:color(display-p3 0.9216 0.0000 0.1608);fill-opacity:1;"/>
<path d="M240.076 106.461C225.564 106.461 210.1 132.512 201.298 150.235C202.012 147.737 203.677 141.671 206.77 128.943C211.409 110.387 195.945 118.119 195.945 118.119C200.584 119.665 194.993 130.252 194.993 130.252L160.498 177.951C159.308 177.713 194.993 122.044 178.221 122.163C167.873 122.282 146.223 148.57 146.223 148.57C146.223 148.57 162.877 125.256 150.863 125.256C145.748 125.256 138.967 131.917 135.161 136.318C139.086 130.609 146.104 118.238 132.663 118.238C131.949 118.238 132.544 118 132.187 119.784C131.236 125.256 112.441 137.389 105.78 140.838C105.78 140.838 106.494 133.463 99.9514 133.463C94.0039 133.463 91.7438 138.34 91.268 139.53C91.0301 139.292 90.3164 138.697 88.6511 138.697C79.4918 138.697 49.873 176.881 48.6835 187.229C47.8508 194.01 51.7762 191.274 53.9173 194.366C56.0584 197.459 56.0584 201.028 60.4596 201.028C75.4475 201.028 105.066 159.395 106.018 149.284C109.23 148.451 113.155 146.548 117.794 142.979C114.939 147.381 101.141 168.673 96.5018 175.929C91.3869 184.018 95.9071 184.85 97.2156 185.564C98.643 186.278 100.189 189.846 101.974 189.846C103.758 189.846 104.709 187.943 104.709 187.943C103.877 188.419 118.508 163.915 128.381 152.139C128.857 151.544 136.232 143.098 138.967 143.098C141.109 143.098 135.28 152.852 132.782 156.897C132.425 157.373 132.068 157.848 131.83 158.443C131.83 158.562 131.711 158.562 131.711 158.562C131.592 158.681 131.592 158.8 131.474 159.038C128.262 165.58 130.879 168.078 131.949 168.911C133.02 169.743 132.544 171.052 133.853 171.409C135.042 171.647 135.518 171.29 136.707 169.268C140.038 164.034 159.07 143.931 164.185 139.411C169.3 135.01 166.445 140.125 166.445 140.125C166.445 140.125 152.171 167.127 147.889 176.881C143.607 186.635 150.149 192.344 151.1 193.296C152.052 194.247 152.885 198.054 156.096 198.054C159.308 198.054 162.401 193.058 162.401 193.058L188.332 153.209C188.332 153.209 167.873 211.852 165.137 217.919C162.401 223.985 166.564 224.818 167.873 225.888C169.3 226.84 169.419 229.695 172.274 229.695C175.01 229.695 177.27 222.32 177.27 222.32L192.377 177.237C192.377 183.542 194.399 190.322 203.201 190.322C233.653 190.084 269.1 106.461 240.076 106.461ZM63.1955 185.445C57.9616 185.445 86.7478 144.645 91.6248 144.645H91.7438C92.3385 146.191 93.2901 147.619 94.9555 148.689C92.6954 158.919 65.9314 185.445 63.1955 185.445ZM217.237 172.479C217.237 172.479 209.862 181.758 203.201 181.758C196.54 181.758 200.465 171.409 200.465 171.409C205.461 153.923 231.155 113.836 237.578 117.762C244.477 121.925 231.036 156.421 217.237 172.479Z" fill="#EB0029" style="fill:#EB0029;fill:color(display-p3 0.9216 0.0000 0.1608);fill-opacity:1;"/>
</svg>
