<svg width="173" height="471" viewBox="0 0 173 471" fill="none" xmlns="http://www.w3.org/2000/svg">
<path d="M23.8901 470.54C20.4501 470.54 17.5001 469.65 15.1201 467.9C9.28006 463.57 9.02006 455.54 8.92006 452.51C8.42006 437.98 7.80006 422.92 7.11006 407.77C5.93006 382.11 4.30006 356.03 2.73006 330.8C2.39006 325.39 1.49006 310.83 1.37006 308.96C-0.359941 281.71 -2.14994 253.53 7.65006 226.52C11.4601 216.02 15.9801 205.67 20.3501 195.66C26.9401 180.56 33.7601 164.95 37.9401 149.13C43.1501 129.42 42.8601 109.46 42.5601 88.32L42.5301 85.99C42.4301 79.49 42.3101 70.91 42.2801 62.22C42.2801 61.93 42.2501 60.97 42.2101 59.72C42.1801 58.63 42.1401 57.32 42.1001 56.01C39.5001 54.77 37.9801 52.87 37.1801 51.53C34.8701 47.67 34.6001 43.19 34.3901 39.92C34.3501 39.26 34.3101 38.62 34.2501 38.03C34.1801 37.32 34.1001 36.6 34.0301 35.89C33.6101 32.02 33.1901 28.02 33.4801 23.71C34.0101 16.17 37.4701 6.62 45.6001 2.39C49.8601 0.18 54.2701 0 58.0701 0L113.08 0.11C116.48 0.11 121.17 0.11 125.72 1.96C137.6 6.81 137.66 19.49 137.7 27.07C137.7 27.95 137.7 28.8 137.73 29.61C137.85 33.54 137.88 37.64 137.83 41.78C137.81 43.56 137.77 46.25 136.67 49.06C135.5 51.99 132.59 54.2 129.58 55.62C129.33 63.64 129.47 71.84 129.6 79.82C129.68 84.61 129.77 89.57 129.77 94.45V94.92C129.77 103.77 129.77 112.92 130.31 121.78C131.71 144.99 139.73 166.82 149.27 190.91C150.84 194.87 152.57 198.94 154.24 202.88C158.53 212.99 162.96 223.44 165.82 234.34C169.5 248.39 171.7 263.51 172.54 280.58C173.93 308.91 171.98 337.67 170.09 365.48L169.91 368.08C168.99 381.78 167.89 395.67 166.83 409.11C165.49 426.11 164.1 443.69 163.06 460.96V461.11C162.84 463.69 161.88 465.8 160.18 467.38L160.03 467.51C158.35 469 156.23 469.75 153.75 469.75C129.77 469.83 105.49 469.84 84.6201 469.84H60.9501C57.0101 469.84 37.2801 469.84 37.2801 469.84C35.3001 469.84 33.3201 469.84 31.3401 469.84C30.8301 469.84 29.8301 469.98 28.9501 470.1C27.4401 470.31 25.7401 470.54 23.9001 470.54H23.8901Z" fill="white" style="fill:white;fill:white;fill-opacity:1;"/>
<path d="M164.55 280.95C163.81 265.93 161.9 250.92 158.08 236.35C154.26 221.82 147.39 207.86 141.83 193.84C132.65 170.67 123.84 147.4 122.32 122.25C121.76 113 121.77 103.71 121.77 94.44C121.77 79.38 120.97 64.08 121.87 49.05C121.87 50.58 128.58 47.74 129.22 46.14C129.77 44.73 129.81 43.18 129.83 41.67C129.88 37.72 129.85 33.77 129.73 29.82C129.54 22.85 130.6 12.59 122.71 9.37003C119.68 8.14003 116.33 8.11003 113.06 8.11003C94.9301 8.07003 76.79 8.04003 58.66 8.00003C55.46 7.99003 52.12 8.02003 49.28 9.49003C44.16 12.15 41.8301 18.83 41.4501 24.26C41.1501 28.61 41.7701 32.93 42.2001 37.24C42.5101 40.36 42.3501 44.63 44.0201 47.42C45.3 49.55 47.87 49.36 50.0201 49.1C49.82 49.12 50.26 61.3 50.26 62.2C50.29 70.1 50.39 78 50.51 85.89C50.82 107.97 51.35 129.65 45.66 151.18C38.53 178.17 24.66 203.07 15.1601 229.25C5.28005 256.49 7.96005 285.76 9.70005 314.08C11.6201 345.18 13.6701 376.26 15.1001 407.4C15.7901 422.34 16.4001 437.3 16.9201 452.25C17.0101 455.06 17.3501 459.59 19.8601 461.45C22.8501 463.65 27.84 461.82 31.3601 461.83C37.2701 461.85 43.19 461.83 49.1101 461.83C60.94 461.82 72.7701 461.83 84.6101 461.83C107.65 461.83 130.69 461.82 153.74 461.74C154.08 461.74 154.47 461.74 154.73 461.5C155 461.25 155.04 460.84 155.07 460.46C156.94 429.45 159.84 398.52 161.93 367.52C163.87 338.91 165.96 309.68 164.55 280.95ZM98.3501 317.74C100.74 317.63 98.2401 321.43 97.3901 319.09C97.09 318.28 97.7201 317.77 98.3501 317.74ZM99.1201 323.22C99.3601 322.94 99.6401 322.84 99.9001 322.86C100.75 322.93 101.48 324.26 100.45 324.81C99.5001 325.31 98.3801 324.08 99.1201 323.22Z" fill="white" style="fill:white;fill:white;fill-opacity:1;"/>
<path d="M99.99 332.93C96.44 332.93 93.19 330.83 91.7 327.59C90.22 324.37 90.74 320.69 93.06 318.01C94.77 316.02 97.24 314.87 99.84 314.87H100.15L100.52 314.9C104.58 315.24 107.95 318.25 108.78 322.23C109.58 326.12 107.75 330 104.23 331.88C102.9 332.58 101.45 332.94 100 332.94L99.99 332.93Z" fill="white" style="fill:white;fill:white;fill-opacity:1;"/>
<path d="M100.45 324.81C99.5 325.31 98.38 324.08 99.12 323.22C99.36 322.94 99.64 322.84 99.9 322.86C100.75 322.93 101.48 324.26 100.45 324.81Z" fill="white" style="fill:white;fill:white;fill-opacity:1;"/>
<path d="M98.1802 325.73C98.2702 325.73 98.3602 325.73 98.4502 325.73V309.73C100.74 309.73 102.89 310.54 104.51 312C106.32 313.63 107.36 315.98 107.35 318.45C107.35 323.54 103.15 327.84 98.1702 327.84V325.72L98.1802 325.73Z" fill="white" style="fill:white;fill:white;fill-opacity:1;"/>
<path d="M97.39 319.09C97.09 318.28 97.72 317.77 98.35 317.74C100.74 317.63 98.24 321.43 97.39 319.09Z" fill="white" style="fill:white;fill:white;fill-opacity:1;"/>
<path d="M121.87 49.05C120.97 64.08 121.77 79.38 121.77 94.43C121.77 103.71 121.77 112.99 122.32 122.25C123.84 147.4 132.64 170.66 141.83 193.84C147.39 207.86 154.26 221.82 158.07 236.35C161.9 250.91 163.81 265.92 164.55 280.94C165.96 309.68 163.87 338.9 161.93 367.52C159.83 398.51 156.93 429.45 155.06 460.46C155.04 460.83 155 461.24 154.72 461.49C154.46 461.72 154.08 461.74 153.73 461.74C130.69 461.81 107.65 461.82 84.6001 461.82H49.1001C43.1901 461.82 37.2701 461.85 31.3501 461.83C27.8301 461.82 22.8401 463.65 19.8601 461.44C17.3401 459.59 17.0101 455.05 16.9101 452.24C16.3901 437.29 15.7901 422.34 15.1001 407.39C13.6601 376.26 11.6201 345.17 9.7001 314.07C7.9501 285.75 5.2701 256.48 15.1601 229.24C24.6601 203.06 38.5301 178.16 45.6601 151.17C51.3401 129.64 50.8101 107.97 50.5001 85.89C50.3901 77.99 50.2801 70.09 50.2601 62.19C50.2601 61.29 49.8201 49.12 50.0201 49.1C47.8701 49.36 45.2901 49.55 44.0201 47.41C42.3501 44.62 42.5101 40.36 42.2001 37.24C41.7601 32.92 41.1401 28.6 41.4401 24.25C41.8201 18.82 44.1601 12.14 49.2801 9.49003C52.1201 8.02003 55.4601 7.99003 58.6501 8.00003C76.7901 8.03003 94.9301 8.07003 113.06 8.10003C116.32 8.10003 119.68 8.13003 122.7 9.36003C130.6 12.58 129.53 22.84 129.73 29.81C129.84 33.76 129.87 37.71 129.83 41.67C129.81 43.18 129.77 44.73 129.21 46.13C128.58 47.74 121.87 50.58 121.87 49.05ZM156.9 361.68C158.59 333.02 160.63 303.72 158.75 275C158.43 270.13 157.96 265.28 157.3 260.47C153.37 231.63 143.05 204.1 131.82 177.4C125.27 161.84 118.89 146.89 117.64 129.8C116.16 109.48 118 88.88 117.97 68.69C117.97 64.31 117.91 59.92 117.79 55.54C117.66 51.18 118.58 49.11 113.76 49.11C109.7 49.12 105.64 49.11 101.58 49.11C87.0801 49.11 72.5801 49.06 58.0701 49C54.3901 48.99 54.6301 50.26 54.6601 53.47C54.6901 56.27 54.7401 59.08 54.8001 61.88C54.9401 67.72 55.1401 73.56 55.2901 79.4C55.5801 90.61 55.7101 101.84 54.9301 113.04C52.9201 141.84 45.4101 169.63 33.6201 195.93C33.1101 197.05 32.6101 198.18 32.1101 199.31C20.3701 225.75 13.6101 251.98 12.3901 281C11.2001 309.87 15.9601 338.1 17.6401 366.98C19.3301 396.25 19.3301 426.67 21.0301 455.94C21.0601 456.48 21.1201 457.09 21.5301 457.45C21.9101 457.79 22.4601 457.8 22.9601 457.8C46.1501 457.8 69.3401 457.8 92.5201 457.8C104.12 457.8 115.71 457.81 127.3 457.81C134.17 457.81 150.99 461.76 151.55 452.26C153.33 422.06 155.11 391.86 156.9 361.67V361.68ZM125.49 37.9C125.57 33.42 125.53 28.93 125.35 24.45C125.22 21.25 125.57 17.3 123.24 14.76C121.51 12.88 118.77 12.39 116.23 12.16C96.9101 10.47 77.5601 12.29 58.2501 11.98C54.9701 11.92 51.4001 12.53 49.2001 14.96C48.0501 16.24 47.4001 17.9 47.0201 19.58C45.2501 27.43 46.9401 37.04 47.0201 45.11C72.2901 45.12 97.5601 45.2 122.83 45.2C126.7 45.21 125.46 40.49 125.5 37.9H125.49Z" fill="#010101" style="fill:#010101;fill:color(display-p3 0.0039 0.0039 0.0039);fill-opacity:1;"/>
<path d="M158.75 275C160.63 303.72 158.59 333.02 156.9 361.68C155.11 391.87 153.33 422.07 151.55 452.27C150.99 461.77 134.17 457.82 127.3 457.82C115.71 457.82 104.12 457.81 92.52 457.81C69.34 457.81 46.15 457.81 22.96 457.81C22.46 457.81 21.91 457.8 21.53 457.46C21.12 457.1 21.06 456.49 21.03 455.95C19.33 426.68 19.33 396.26 17.64 366.99C15.96 338.11 11.2 309.88 12.39 281.01C13.61 251.99 20.37 225.76 32.11 199.32C32.61 198.19 33.11 197.06 33.62 195.94C45.41 169.64 52.92 141.85 54.93 113.05C55.71 101.85 55.58 90.62 55.29 79.41C55.14 73.57 54.94 67.73 54.8 61.89C54.74 59.09 54.69 56.28 54.66 53.48C54.63 50.27 54.39 49 58.07 49.01C72.58 49.07 87.08 49.12 101.58 49.12C105.64 49.12 109.7 49.13 113.76 49.12C118.58 49.12 117.66 51.19 117.79 55.55C117.91 59.93 117.96 64.32 117.97 68.7C118 88.89 116.16 109.49 117.64 129.81C118.89 146.9 125.27 161.85 131.82 177.41C143.05 204.11 153.37 231.64 157.3 260.48C157.96 265.29 158.43 270.14 158.75 275.01V275ZM135.59 305.45C135.59 300.11 136.64 294.54 130.23 292.68C128.03 292.04 125.69 292.11 123.42 292.34C120.81 292.6 116.8 293.9 114.56 292.08C112.92 290.76 112.5 288.23 111.44 286.49C106.31 278.05 96.32 272.8 86.45 273.37C76.59 273.94 67.27 280.31 63.15 289.29C61.63 292.6 59.85 293.32 56.21 292.87C52.8 292.46 49.33 292.19 45.96 292.81C43.79 293.21 41.71 294.2 40.91 296.39C40.4 297.79 40.39 299.31 40.39 300.79C40.37 309.18 40.33 317.58 40.3 325.97C40.29 330.02 40.22 334.07 40.3 338.12C40.37 342.04 39.71 346.2 40.67 350.06C41 351.38 41.58 352.71 42.64 353.57C44.13 354.8 46.23 354.86 48.17 354.87C74.2 354.95 100.23 354.98 126.27 355.13C127.48 355.13 128.75 355.12 129.95 354.93C131.3 354.71 132.57 354.26 133.59 353.36C137.89 349.56 135.58 340.84 135.59 335.92V305.45Z" fill="#EA0029" style="fill:#EA0029;fill:color(display-p3 0.9176 0.0000 0.1608);fill-opacity:1;"/>
<path d="M130.23 292.68C136.64 294.54 135.59 300.11 135.59 305.45V335.92C135.59 340.84 137.89 349.56 133.59 353.36C132.57 354.26 131.3 354.71 129.95 354.93C128.75 355.12 127.48 355.13 126.27 355.13C100.23 354.98 74.2001 354.95 48.1701 354.87C46.2301 354.86 44.1301 354.8 42.6401 353.57C41.5801 352.71 41.0001 351.38 40.6701 350.06C39.7101 346.2 40.3701 342.04 40.3001 338.12C40.2201 334.07 40.2901 330.02 40.3001 325.97C40.3301 317.58 40.3701 309.18 40.3901 300.79C40.3901 299.31 40.4001 297.79 40.9101 296.39C41.7101 294.2 43.7901 293.21 45.9601 292.81C49.3301 292.19 52.8001 292.46 56.2101 292.87C59.8501 293.32 61.6301 292.6 63.1501 289.29C67.2701 280.31 76.5901 273.94 86.4501 273.37C96.3201 272.8 106.31 278.05 111.44 286.49C112.5 288.23 112.92 290.76 114.56 292.08C116.8 293.9 120.81 292.6 123.42 292.34C125.69 292.11 128.03 292.04 130.23 292.68ZM131.8 327.8C131.83 321.86 131.82 315.93 131.77 309.99C131.74 307.03 131.7 304.06 131.66 301.09C131.61 298.3 131.58 296.78 128.3 296.84C124.02 296.91 115.67 298.63 112.08 295.65C110.75 294.54 110.2 292.79 109.51 291.2C102.18 274.19 75.1301 273.74 67.0201 290.34C64.8001 294.89 62.5001 297.58 57.0001 297.58C53.6501 297.58 50.3301 296.71 46.9801 296.91C46.6801 296.93 46.4101 296.98 46.1701 297.05C42.9901 298 44.4601 303.37 44.4701 305.96C44.4701 313.93 44.4701 321.9 44.4701 329.87V341.59C44.4701 343.42 43.4501 349.55 45.5301 350.63C45.9801 350.86 46.5001 350.86 47.0001 350.86C73.5901 350.89 100.19 350.87 126.79 350.93C132.18 350.93 131.53 346.9 131.61 342.74C131.7 337.76 131.76 332.78 131.79 327.8H131.8Z" fill="#010101" style="fill:#010101;fill:color(display-p3 0.0039 0.0039 0.0039);fill-opacity:1;"/>
<path d="M131.77 309.99C131.82 315.93 131.83 321.86 131.8 327.8C131.77 332.78 131.71 337.76 131.62 342.74C131.54 346.9 132.19 350.94 126.8 350.93C100.2 350.87 73.6001 350.89 47.0101 350.86C46.5101 350.86 45.9901 350.86 45.5401 350.63C43.4601 349.55 44.4801 343.42 44.4801 341.59V329.87C44.4801 321.9 44.4801 313.93 44.4801 305.96C44.4801 303.37 43.0001 298 46.1801 297.05C46.4201 296.98 46.6901 296.93 46.9901 296.91C50.3401 296.71 53.6601 297.58 57.0101 297.58C62.5101 297.58 64.8101 294.89 67.0301 290.34C75.1401 273.74 102.19 274.19 109.52 291.2C110.21 292.79 110.76 294.54 112.09 295.65C115.68 298.63 124.03 296.91 128.31 296.84C131.59 296.78 131.62 298.3 131.67 301.09C131.71 304.06 131.75 307.03 131.78 309.99H131.77ZM88.0401 340.9C99.1801 340.9 110.62 332.45 109.63 320.41C109.02 312.99 104.14 309.23 98.6401 305.11C99.1801 304.82 100.07 304.29 99.8801 303.54C99.7701 303.09 99.3001 302.83 98.8701 302.66C96.3501 301.62 93.4701 301.47 90.8601 302.22C91.1501 301.58 91.2201 300.85 91.2701 300.15C91.3501 299.01 91.4001 297.85 91.0501 296.77C90.7101 295.68 89.9101 294.68 88.8201 294.39C87.1201 293.94 85.3901 295.37 84.8701 297.05C84.3601 298.72 84.7301 300.53 85.1301 302.24C82.4201 301.87 80.1301 301.6 77.4801 302.5C76.8401 302.71 76.1101 303.12 76.1101 303.79C76.1101 304.46 76.8401 304.87 77.4601 305.13C71.1001 308.26 66.3801 314.58 66.3801 321.82C66.3801 332.34 76.1001 340.9 88.0401 340.9Z" fill="white" style="fill:white;fill:white;fill-opacity:1;"/>
<path d="M125.35 24.45C125.53 28.93 125.57 33.42 125.49 37.9C125.45 40.49 126.69 45.21 122.82 45.2C97.55 45.2 72.28 45.12 47.01 45.11C46.94 37.04 45.25 27.43 47.01 19.58C47.39 17.9 48.04 16.24 49.19 14.96C51.39 12.53 54.9601 11.92 58.2401 11.98C77.55 12.29 96.9 10.47 116.22 12.16C118.76 12.39 121.5 12.88 123.23 14.76C125.56 17.3 125.21 21.25 125.34 24.45H125.35Z" fill="white" style="fill:white;fill:white;fill-opacity:1;"/>
<path d="M102.46 319.8C103.41 320.17 104.43 321.82 102.46 321.82C101.89 321.82 101.43 321.36 101.43 320.79C101.43 319.77 101.93 319.6 102.45 319.8H102.46Z" fill="black" style="fill:black;fill:black;fill-opacity:1;"/>
<path d="M99.12 323.22C99.36 322.94 99.63 322.84 99.89 322.86C100.75 322.92 101.47 324.26 100.45 324.8C99.5 325.31 98.38 324.07 99.12 323.22Z" fill="black" style="fill:black;fill:black;fill-opacity:1;"/>
<path d="M98.35 317.74C100.73 317.63 98.24 321.43 97.38 319.08C97.09 318.27 97.72 317.77 98.35 317.74Z" fill="black" style="fill:black;fill:black;fill-opacity:1;"/>
<path d="M87.4801 303.77C87.4801 303.57 87.4501 303.36 87.4201 303.17C87.1501 301.6 85.4101 297.43 87.7101 296.6C88.2401 296.4 88.9201 296.62 89.1601 297.13C89.3301 297.48 89.2701 297.9 89.2101 298.28C88.9501 300.05 88.5501 301.85 88.5501 303.65C88.5501 303.69 88.5401 303.73 88.5401 303.77H87.4801Z" fill="white" style="fill:white;fill:white;fill-opacity:1;"/>
<path d="M92.7402 306.56C92.7702 307.09 93.4002 307.33 93.9002 307.5C95.0102 307.88 96.2702 308.77 96.4302 310.01C94.7402 310.39 92.0802 308.21 90.5402 307.49C90.2202 307.34 89.8402 307.36 89.5402 307.55C89.2502 307.74 89.0702 308.07 89.0702 308.42C89.0702 310.21 88.8602 312.82 87.9502 314.48C86.8502 312.94 86.5802 310.33 86.4902 308.47V308.37C86.4702 308.02 86.2802 307.71 85.9802 307.54C85.8202 307.44 85.6402 307.39 85.4602 307.39C85.3102 307.39 85.1602 307.42 85.0202 307.49L78.9602 310.32C79.4302 308.88 80.6202 307.81 82.0902 307.48L82.6002 307.36C83.1602 307.24 83.5102 306.68 83.3802 306.13C83.3102 305.83 83.1102 305.57 82.8402 305.44C81.9702 305 80.9502 304.66 80.2102 304.06C81.7502 303.47 83.9002 303.9 85.4102 304.48C85.6202 304.56 85.8402 304.65 86.0702 304.7C86.5102 304.81 86.9502 304.82 87.2402 304.51C87.4302 304.31 87.4802 304.05 87.4802 303.77H88.5402C88.5402 304.1 88.6902 304.41 88.9702 304.61C89.2602 304.83 89.6602 304.87 90.0002 304.72C91.6602 303.97 94.0902 303.35 95.8302 304.03C95.1202 303.75 93.3902 305.43 93.0402 305.88C92.8802 306.08 92.7302 306.31 92.7402 306.56Z" fill="white" style="fill:white;fill:white;fill-opacity:1;"/>
<path d="M101.44 320.79C101.44 321.36 101.9 321.82 102.47 321.82C104.43 321.82 103.41 320.17 102.47 319.8C101.95 319.6 101.45 319.77 101.45 320.79H101.44ZM97.3801 319.08C98.2401 321.43 100.73 317.63 98.3501 317.74C97.7201 317.77 97.0901 318.27 97.3801 319.08ZM99.8902 322.86C99.6301 322.84 99.3602 322.94 99.1202 323.22C98.3802 324.07 99.5001 325.31 100.45 324.8C101.47 324.26 100.75 322.92 99.8902 322.86ZM69.3101 325.71C67.2201 317.99 71.9902 309.85 79.0802 306.69C77.6302 307.34 76.4902 310.2 76.6102 311.7C76.6602 312.29 77.0402 312.89 77.6202 312.99C77.9402 313.04 78.2701 312.94 78.5601 312.8C79.5501 312.34 80.3301 311.53 81.2801 310.97C82.2201 310.42 83.5001 310.17 84.3501 310.85C84.7101 311.14 84.9501 311.57 85.1301 312C85.9301 313.83 86.0402 315.96 87.1602 317.6C87.3702 317.91 87.6601 318.22 88.0301 318.23C88.5001 318.23 88.8202 317.77 89.0301 317.35C90.1801 315.09 90.1601 312.21 91.2401 310.13C93.2601 310.82 95.2102 311.94 97.1502 312.85C97.4202 312.97 97.7101 313.1 98.0002 313.06C98.6402 312.97 98.8902 312.18 98.9002 311.53C98.9202 309.57 97.9502 307.64 96.3302 306.52C97.7202 307.48 99.3901 307.95 100.77 309.03C102.18 310.13 103.43 311.45 104.46 312.92C106.42 315.72 107.7 319.14 107.59 322.58C107.25 332.71 97.4602 338.43 88.0402 338.59C84.9602 338.65 81.9202 338.11 79.2602 336.94C74.5302 334.85 70.6601 330.7 69.3101 325.71Z" fill="#EA0029" style="fill:#EA0029;fill:color(display-p3 0.9176 0.0000 0.1608);fill-opacity:1;"/>
<path d="M87.4201 303.17C87.4501 303.36 87.4801 303.57 87.4801 303.77C87.4801 304.05 87.4301 304.31 87.2401 304.51C86.9501 304.82 86.5101 304.81 86.0701 304.7C85.8401 304.65 85.6201 304.56 85.4101 304.48C83.9001 303.9 81.7501 303.47 80.2101 304.06C80.9501 304.66 81.9701 305 82.8401 305.44C83.1101 305.57 83.3101 305.83 83.3801 306.13C83.5101 306.68 83.1601 307.24 82.6001 307.36L82.0901 307.48C80.6201 307.81 79.4301 308.88 78.9601 310.32L85.0201 307.49C85.1601 307.42 85.3101 307.39 85.4601 307.39C85.6401 307.39 85.8201 307.44 85.9801 307.54C86.2801 307.71 86.4701 308.02 86.4901 308.37V308.47C86.5801 310.33 86.8501 312.94 87.9501 314.48C88.8601 312.82 89.0701 310.21 89.0701 308.42C89.0701 308.07 89.2501 307.74 89.5401 307.55C89.8401 307.36 90.2201 307.34 90.5401 307.49C92.0801 308.21 94.7401 310.39 96.4301 310.01C96.2701 308.77 95.0101 307.88 93.9001 307.5C93.4001 307.33 92.7701 307.09 92.7401 306.56C92.7301 306.31 92.8801 306.08 93.0401 305.88C93.3901 305.43 95.1201 303.75 95.8301 304.03C94.0901 303.35 91.6601 303.97 90.0001 304.72C89.6601 304.87 89.2601 304.83 88.9701 304.61C88.6901 304.41 88.5401 304.1 88.5401 303.77C88.5401 303.73 88.5501 303.69 88.5501 303.65C88.5501 301.85 88.9501 300.05 89.2101 298.28C89.2701 297.9 89.3301 297.48 89.1601 297.13C88.9201 296.62 88.2401 296.4 87.7101 296.6C85.4101 297.43 87.1501 301.6 87.4201 303.17ZM88.0401 340.9C76.1001 340.9 66.3801 332.34 66.3801 321.82C66.3801 314.58 71.1001 308.26 77.4601 305.13C76.8401 304.87 76.1101 304.46 76.1101 303.79C76.1101 303.12 76.8401 302.71 77.4801 302.5C80.1301 301.6 82.4201 301.87 85.1301 302.24C84.7301 300.53 84.3601 298.72 84.8701 297.05C85.3901 295.37 87.1201 293.94 88.8201 294.39C89.9101 294.68 90.7101 295.68 91.0501 296.77C91.4001 297.85 91.3501 299.01 91.2701 300.15C91.2201 300.85 91.1501 301.58 90.8601 302.22C93.4701 301.47 96.3501 301.62 98.8701 302.66C99.3001 302.83 99.7701 303.09 99.8801 303.54C100.07 304.29 99.1801 304.82 98.6401 305.11C104.14 309.23 109.02 312.99 109.63 320.41C110.62 332.45 99.1801 340.9 88.0401 340.9ZM104.46 312.92C103.43 311.45 102.18 310.13 100.77 309.03C99.3901 307.95 97.7201 307.48 96.3301 306.52C97.9501 307.64 98.9201 309.57 98.9001 311.53C98.8901 312.18 98.6401 312.97 98.0001 313.06C97.7101 313.1 97.4201 312.97 97.1501 312.85C95.2101 311.94 93.2601 310.82 91.2401 310.13C90.1601 312.21 90.1801 315.09 89.0301 317.35C88.8201 317.77 88.5001 318.23 88.0301 318.23C87.6601 318.23 87.3701 317.91 87.1601 317.6C86.0401 315.96 85.9301 313.83 85.1301 312C84.9501 311.57 84.7101 311.14 84.3501 310.85C83.5001 310.17 82.2201 310.42 81.2801 310.97C80.3301 311.53 79.5501 312.34 78.5601 312.8C78.2701 312.94 77.9401 313.04 77.6201 312.99C77.0401 312.89 76.6601 312.29 76.6101 311.7C76.4901 310.2 77.6301 307.34 79.0801 306.69C71.9901 309.85 67.2201 317.99 69.3101 325.71C70.6601 330.7 74.5301 334.85 79.2601 336.94C81.9201 338.11 84.9601 338.65 88.0401 338.59C97.4601 338.43 107.25 332.71 107.59 322.58C107.7 319.14 106.42 315.72 104.46 312.92Z" fill="#010101" style="fill:#010101;fill:color(display-p3 0.0039 0.0039 0.0039);fill-opacity:1;"/>
</svg>
