<svg width="296" height="53" viewBox="0 0 296 53" fill="none" xmlns="http://www.w3.org/2000/svg">
<rect width="296" height="53" rx="26.5" fill="#EA0029" style="fill:#EA0029;fill:color(display-p3 0.9176 0.0000 0.1608);fill-opacity:1;"/>
<path d="M48.2216 30.3312C47.7928 31.9669 46.7368 33.2373 45.0535 34.1425C43.5925 34.9047 41.9489 35.2858 40.1227 35.2858C39.0111 35.2858 37.828 35.1429 36.5735 34.8571C36.0812 34.73 35.4936 34.5157 34.8108 34.2139C33.2228 33.4993 32.4288 32.5703 32.4288 31.427C32.4288 30.8712 32.5717 30.4345 32.8575 30.1169C33.1593 29.7834 33.5563 29.6166 34.0485 29.6166C34.5408 29.6166 34.9775 29.8072 35.3587 30.1883C35.4698 30.2995 35.6207 30.49 35.8112 30.76C36.0018 31.0141 36.2479 31.3476 36.5497 31.7604C36.6291 31.9034 36.7402 32.0304 36.8831 32.1416C37.4548 32.7133 38.3203 32.9991 39.4796 32.9991C40.0354 32.9991 40.5276 32.9276 40.9564 32.7847L41.2422 32.6418C42.0363 32.2289 42.4333 31.7684 42.4333 31.2602C42.5285 30.3709 41.9886 29.8151 40.8135 29.5928L38.3124 29.1164C38.1853 29.1005 38.0662 29.0846 37.9551 29.0688C37.8598 29.0529 37.7566 29.0291 37.6454 28.9973C37.4866 28.9338 37.3278 28.8782 37.169 28.8306C37.0102 28.7829 36.8514 28.7273 36.6926 28.6638C36.1368 28.4574 35.5492 28.1477 34.9299 27.7348C33.5324 26.782 32.8337 25.4878 32.8337 23.8521C32.8337 22.1371 33.6118 20.7079 35.1681 19.5645C36.5655 18.5164 38.3441 17.9924 40.5038 17.9924C40.8214 17.9924 41.0834 18.0003 41.2899 18.0162C41.4963 18.0162 41.6393 18.0241 41.7187 18.04C41.9092 18.0559 42.1951 18.1035 42.5762 18.1829C42.9573 18.2464 43.4337 18.3497 44.0054 18.4926C44.4659 18.6037 44.8867 18.7228 45.2679 18.8499C45.649 18.9769 45.9984 19.104 46.316 19.231C46.4748 19.3104 46.6097 19.3819 46.7209 19.4454C46.8321 19.5089 46.9194 19.5963 46.9829 19.7074C47.0464 19.8186 47.0941 19.9536 47.1258 20.1124C47.1576 20.2712 47.1894 20.4776 47.2211 20.7317C47.2529 20.9858 47.2767 21.1922 47.2926 21.351C47.3085 21.4939 47.3164 21.5972 47.3164 21.6607V21.9703C47.3164 23.0819 46.9273 23.6378 46.1492 23.6378C45.7522 23.6378 45.4267 23.5425 45.1726 23.3519C44.9344 23.1455 44.6962 22.7008 44.458 22.018C44.3786 21.7639 44.0769 21.3272 43.5528 20.7079C43.1876 20.2791 42.4888 20.0647 41.4566 20.0647C40.6467 20.0647 40.0274 20.2235 39.5987 20.5411C39.1699 20.8428 38.9555 21.2478 38.9555 21.756C38.9555 22.55 39.4875 23.074 40.5515 23.3281L41.0279 23.4472L41.3852 23.5187L41.5281 23.5663L45.0535 24.5906C45.1329 24.6064 45.1964 24.6223 45.244 24.6382C45.3076 24.6541 45.3552 24.67 45.387 24.6858C46.4827 24.9558 47.2688 25.4004 47.7452 26.0198C48.2216 26.6232 48.4598 27.4966 48.4598 28.64C48.4598 29.1799 48.3804 29.7437 48.2216 30.3312ZM64.7463 20.2315C64.8257 20.6285 64.8892 20.9461 64.9369 21.1843C64.9845 21.4066 65.0083 21.5575 65.0083 21.6369C65.0083 21.9386 64.8892 22.2085 64.651 22.4467C64.3493 22.7167 64.0079 22.8199 63.6267 22.7564C63.1027 22.677 62.6898 22.3197 62.3881 21.6845C62.1975 21.2875 61.9832 21.0096 61.745 20.8508C61.5067 20.692 61.1177 20.5729 60.5778 20.4935H60.1728L60.1966 32.1654C60.2443 32.61 60.4348 32.9118 60.7683 33.0706L60.8398 33.0944L60.9112 33.142C61.2765 33.3326 61.4591 33.6264 61.4591 34.0234C61.4591 34.6745 61.1097 35 60.411 35H53.7414C53.2332 35 52.9235 34.8015 52.8124 34.4045C52.7488 34.2933 52.7171 34.1584 52.7171 33.9996C52.7171 33.6025 52.8997 33.3167 53.2649 33.142L53.4079 33.0706C53.7414 32.9118 53.9319 32.61 53.9796 32.1654L54.0034 31.9272V20.4935H53.6223C53.3523 20.5411 53.122 20.5888 52.9315 20.6364C52.7568 20.684 52.598 20.7555 52.4551 20.8508C52.328 20.9461 52.2089 21.0652 52.0978 21.2081C51.9866 21.3351 51.8754 21.5019 51.7643 21.7083C51.4308 22.3435 51.0179 22.6929 50.5256 22.7564C50.1127 22.8199 49.7793 22.7246 49.5252 22.4706C49.2711 22.2165 49.1441 21.9306 49.1441 21.613C49.1441 21.5654 49.2314 21.1049 49.4061 20.2315L49.6443 19.0881L49.7396 18.8737C49.9619 18.5085 50.2557 18.3258 50.6209 18.3258H63.5315C63.8967 18.3258 64.1905 18.5085 64.4128 18.8737L64.4843 19.0643L64.7463 20.2315ZM83.1835 34.4045C83.0247 34.8015 82.7071 35 82.2307 35H75.1323C74.6876 35 74.37 34.8015 74.1795 34.4045C74.1318 34.2616 74.108 34.1266 74.108 33.9996C74.108 33.6502 74.2906 33.3643 74.6559 33.142L74.775 33.0706L74.9417 32.9753C75.2435 32.8165 75.3943 32.5703 75.3943 32.2369C75.3943 31.9669 75.2752 31.4111 75.037 30.5694L74.8464 29.9025H69.5345L69.3678 30.3789C69.082 31.1888 68.939 31.7446 68.939 32.0463C68.939 32.5386 69.1455 32.88 69.5584 33.0706L69.6775 33.142C70.0427 33.3643 70.2253 33.6581 70.2253 34.0234C70.2253 34.6745 69.8839 35 69.2011 35H65.5089C64.8737 35 64.5561 34.6745 64.5561 34.0234C64.5561 33.6105 64.7229 33.3167 65.0563 33.142L65.1993 33.0706C65.4057 32.9753 65.5804 32.7609 65.7233 32.4274L65.9139 31.9987L65.9615 31.9272L68.9867 23.876C69.7648 21.8592 70.5112 20.3585 71.2258 19.3739C71.6228 18.834 72.0992 18.4767 72.655 18.302C73.0044 18.1909 73.6078 18.1353 74.4653 18.1353C75.1323 18.1353 75.6484 18.3179 76.0136 18.6831L76.228 18.8975C76.7203 19.4851 77.3873 20.7634 78.2289 22.7326C78.3083 22.9073 78.4274 23.1931 78.5862 23.5901C78.745 23.9712 78.9435 24.4556 79.1817 25.0431C79.3723 25.5037 79.5549 25.9721 79.7296 26.4485C79.9202 26.9249 80.1028 27.4172 80.2775 27.9254L81.1826 30.4742C81.262 30.6806 81.3414 30.9029 81.4208 31.1411C81.5161 31.3793 81.6193 31.6413 81.7305 31.9272L81.802 32.0701L81.9687 32.4274C82.1116 32.745 82.3101 32.9594 82.5642 33.0706L82.6357 33.0944L82.7071 33.142C83.0724 33.3802 83.255 33.674 83.255 34.0234C83.255 34.1663 83.2312 34.2933 83.1835 34.4045ZM73.9413 27.4013L73.4649 25.8054L73.2267 25.1861L72.9408 24.4238L72.7741 23.9236C72.6947 23.6695 72.5041 23.2566 72.2024 22.6849C71.853 23.3678 71.4799 24.2174 71.0829 25.2337L70.8685 25.7816L70.7017 26.2342L70.5112 26.8058L70.3444 27.4013H73.9413ZM101.766 34.0948C101.766 34.6824 101.441 34.9762 100.789 34.9762L93.5005 35C92.8017 35 92.4524 34.6665 92.4524 33.9996C92.4524 33.6184 92.6429 33.3326 93.0241 33.142L93.167 33.0706C93.5005 32.9118 93.6672 32.7371 93.6672 32.5465C93.6672 32.3401 93.4528 31.8796 93.0241 31.1649L91.976 28.9258L91.5234 28.0445L91.309 28.0921C91.182 28.1239 91.0549 28.1477 90.9279 28.1636C90.8008 28.1636 90.6738 28.1557 90.5468 28.1398V32.1654C90.6103 32.61 90.8088 32.9118 91.1423 33.0706L91.2614 33.142C91.6266 33.3643 91.8092 33.6581 91.8092 34.0234C91.8092 34.1187 91.7457 34.3092 91.6187 34.5951C91.4916 34.865 91.2137 35 90.785 35H84.0915C83.8533 35 83.6707 34.9682 83.5436 34.9047C83.4166 34.8253 83.3134 34.738 83.234 34.6427C83.1704 34.5315 83.1307 34.4204 83.1149 34.3092C83.099 34.1981 83.091 34.1028 83.091 34.0234C83.091 33.6105 83.2737 33.3167 83.6389 33.142L83.7818 33.0706C84.0994 32.8959 84.29 32.5942 84.3535 32.1654V21.1604C84.2741 20.7158 84.0835 20.4141 83.7818 20.2553L83.7104 20.2315L83.6389 20.1838C83.2737 20.0091 83.091 19.7154 83.091 19.3025C83.091 18.6514 83.4245 18.3258 84.0915 18.3258L95.811 18.3735C97.0973 18.4529 98.1216 18.7784 98.8838 19.3501C99.5508 19.8424 99.9716 20.4458 100.146 21.1604C100.289 21.8115 100.361 22.2879 100.361 22.5897C100.361 23.3995 100.138 24.1062 99.6937 24.7097C99.2491 25.3131 98.5265 25.9324 97.5261 26.5676L97.145 26.8058L97.3117 27.0202L97.4308 27.187C97.6531 27.4887 97.9469 27.973 98.3122 28.64C98.6774 29.2911 99.1141 30.1407 99.6223 31.1888L99.789 31.5222L100.146 32.3083C100.305 32.6577 100.512 32.88 100.766 32.9753L100.909 33.0467L101.004 33.0706C101.512 33.2611 101.766 33.6025 101.766 34.0948ZM93.9292 22.28C93.7387 21.2795 93.2702 20.692 92.5238 20.5173C92.3492 20.4538 92.1427 20.422 91.9045 20.422L91.4996 20.4697C90.9755 20.6285 90.6341 20.9461 90.4753 21.4225L90.4038 21.8036V25.8292H90.9041C92.4286 25.8292 93.3893 25.2496 93.7863 24.0903C93.9134 23.7886 93.9769 23.4075 93.9769 22.947C93.9769 22.8676 93.9689 22.7485 93.9531 22.5897C93.9372 22.415 93.9292 22.3118 93.9292 22.28ZM117.179 20.2315C117.258 20.6285 117.322 20.9461 117.369 21.1843C117.417 21.4066 117.441 21.5575 117.441 21.6369C117.441 21.9386 117.322 22.2085 117.083 22.4467C116.782 22.7167 116.44 22.8199 116.059 22.7564C115.535 22.677 115.122 22.3197 114.821 21.6845C114.63 21.2875 114.416 21.0096 114.177 20.8508C113.939 20.692 113.55 20.5729 113.01 20.4935H112.605L112.629 32.1654C112.677 32.61 112.867 32.9118 113.201 33.0706L113.272 33.0944L113.344 33.142C113.709 33.3326 113.892 33.6264 113.892 34.0234C113.892 34.6745 113.542 35 112.843 35H106.174C105.666 35 105.356 34.8015 105.245 34.4045C105.181 34.2933 105.149 34.1584 105.149 33.9996C105.149 33.6025 105.332 33.3167 105.697 33.142L105.84 33.0706C106.174 32.9118 106.364 32.61 106.412 32.1654L106.436 31.9272V20.4935H106.055C105.785 20.5411 105.554 20.5888 105.364 20.6364C105.189 20.684 105.03 20.7555 104.887 20.8508C104.76 20.9461 104.641 21.0652 104.53 21.2081C104.419 21.3351 104.308 21.5019 104.197 21.7083C103.863 22.3435 103.45 22.6929 102.958 22.7564C102.545 22.8199 102.212 22.7246 101.958 22.4706C101.704 22.2165 101.576 21.9306 101.576 21.613C101.576 21.5654 101.664 21.1049 101.838 20.2315L102.077 19.0881L102.172 18.8737C102.394 18.5085 102.688 18.3258 103.053 18.3258H115.964C116.329 18.3258 116.623 18.5085 116.845 18.8737L116.917 19.0643L117.179 20.2315ZM141.627 20.2315C141.706 20.6285 141.77 20.9461 141.818 21.1843C141.865 21.4066 141.889 21.5575 141.889 21.6369C141.889 21.9386 141.77 22.2085 141.532 22.4467C141.23 22.7167 140.889 22.8199 140.507 22.7564C139.983 22.677 139.571 22.3197 139.269 21.6845C139.078 21.2875 138.864 21.0096 138.626 20.8508C138.387 20.692 137.998 20.5729 137.458 20.4935H137.054L137.077 32.1654C137.125 32.61 137.316 32.9118 137.649 33.0706L137.72 33.0944L137.792 33.142C138.157 33.3326 138.34 33.6264 138.34 34.0234C138.34 34.6745 137.99 35 137.292 35H130.622C130.114 35 129.804 34.8015 129.693 34.4045C129.63 34.2933 129.598 34.1584 129.598 33.9996C129.598 33.6025 129.78 33.3167 130.146 33.142L130.289 33.0706C130.622 32.9118 130.813 32.61 130.86 32.1654L130.884 31.9272V20.4935H130.503C130.233 20.5411 130.003 20.5888 129.812 20.6364C129.637 20.684 129.479 20.7555 129.336 20.8508C129.209 20.9461 129.09 21.0652 128.978 21.2081C128.867 21.3351 128.756 21.5019 128.645 21.7083C128.312 22.3435 127.899 22.6929 127.406 22.7564C126.993 22.8199 126.66 22.7246 126.406 22.4706C126.152 22.2165 126.025 21.9306 126.025 21.613C126.025 21.5654 126.112 21.1049 126.287 20.2315L126.525 19.0881L126.62 18.8737C126.843 18.5085 127.136 18.3258 127.502 18.3258H140.412C140.777 18.3258 141.071 18.5085 141.294 18.8737L141.365 19.0643L141.627 20.2315ZM161.279 34.4045C161.12 34.8015 160.803 35 160.326 35H153.657C153.323 35 153.061 34.8968 152.871 34.6903C152.696 34.4839 152.609 34.2536 152.609 33.9996C152.609 33.6025 152.791 33.3167 153.156 33.142L153.299 33.0706C153.649 32.9118 153.847 32.61 153.895 32.1654L153.919 31.9272V27.1631H149.679V32.1654C149.742 32.61 149.941 32.9118 150.274 33.0706L150.393 33.142C150.758 33.3643 150.941 33.6581 150.941 34.0234C150.941 34.1187 150.878 34.3092 150.751 34.5951C150.623 34.865 150.346 35 149.917 35H143.223C142.985 35 142.803 34.9682 142.675 34.9047C142.548 34.8253 142.445 34.738 142.366 34.6427C142.302 34.5315 142.263 34.4204 142.247 34.3092C142.231 34.1981 142.223 34.1028 142.223 34.0234C142.223 33.6105 142.406 33.3167 142.771 33.142L142.914 33.0706C143.231 32.8959 143.422 32.5942 143.485 32.1654V21.1604C143.406 20.7158 143.215 20.4141 142.914 20.2553L142.842 20.2315L142.771 20.1838C142.406 20.0091 142.223 19.7154 142.223 19.3025C142.223 18.6514 142.556 18.3258 143.223 18.3258H149.917C150.361 18.3258 150.679 18.5243 150.87 18.9213C150.917 19.0643 150.941 19.1992 150.941 19.3263C150.941 19.6757 150.758 19.9615 150.393 20.1838L150.274 20.2553C149.957 20.3982 149.758 20.6999 149.679 21.1604V24.8288H153.919L153.895 21.1604C153.847 20.7158 153.649 20.4141 153.299 20.2553L153.228 20.2315L153.156 20.1838C152.791 19.9933 152.609 19.6995 152.609 19.3025C152.609 18.6514 152.958 18.3258 153.657 18.3258H160.326C161.009 18.3258 161.351 18.6593 161.351 19.3263C161.351 19.7233 161.168 20.0091 160.803 20.1838L160.66 20.2553C160.326 20.4141 160.136 20.7158 160.088 21.1604L160.064 21.3986L160.088 32.1654C160.136 32.5783 160.326 32.88 160.66 33.0706L160.731 33.0944L160.803 33.142C161.168 33.3802 161.351 33.674 161.351 34.0234C161.351 34.1663 161.327 34.2933 161.279 34.4045ZM177.573 34.1187C177.462 34.7062 176.827 35 175.668 35H163.019C162.781 35 162.598 34.9682 162.471 34.9047C162.344 34.8253 162.241 34.738 162.162 34.6427C162.098 34.5315 162.059 34.4204 162.043 34.3092C162.027 34.1981 162.019 34.1028 162.019 34.0234C162.019 33.6105 162.201 33.3167 162.567 33.142L162.71 33.0706C163.027 32.8959 163.218 32.5942 163.281 32.1654V21.1604C163.202 20.7158 163.011 20.4141 162.71 20.2553L162.638 20.2315L162.567 20.1838C162.201 20.0091 162.019 19.7154 162.019 19.3025C162.019 18.6514 162.352 18.3258 163.019 18.3258H174.572C175.827 18.3258 176.589 18.4608 176.859 18.7308C177.145 19.0007 177.288 19.7551 177.288 20.9937C177.288 21.9783 176.835 22.4706 175.93 22.4706C175.549 22.4706 174.969 22.0577 174.191 21.2319C173.778 20.819 173.278 20.5888 172.69 20.5411L172.357 20.5173L171.666 20.4935H170.808L170.689 20.5173L170.427 20.5888C169.919 20.7317 169.665 21.089 169.665 21.6607V24.9479H170.642L171.261 24.9717H172.476C172.968 24.9717 173.318 24.797 173.524 24.4476L173.595 24.3285L173.691 24.2094L173.857 23.9951C174.064 23.8204 174.342 23.733 174.691 23.733C175.247 23.733 175.588 24.0348 175.715 24.6382L175.692 25.8292V27.187C175.692 27.4887 175.684 27.6475 175.668 27.6634L175.453 28.0921C175.326 28.3145 175.017 28.4256 174.524 28.4256C174.207 28.4256 173.913 28.2906 173.643 28.0207L173.405 27.7825C173.103 27.4966 172.778 27.314 172.428 27.2346C172.396 27.2187 172.285 27.2108 172.095 27.2108C171.904 27.2108 171.626 27.2028 171.261 27.187L170.284 27.1631H169.594V31.022C169.657 31.5937 169.832 32.0066 170.118 32.2607C170.451 32.5465 171.007 32.6894 171.785 32.6894C172.627 32.6894 173.214 32.6339 173.548 32.5227C174.104 32.3798 174.596 32.0701 175.025 31.5937L175.239 31.3555L175.453 31.0935C175.707 30.76 176.025 30.5933 176.406 30.5933C176.978 30.5933 177.399 30.7282 177.669 30.9982C177.827 31.157 177.907 31.419 177.907 31.7843C177.907 31.959 177.875 32.2448 177.812 32.6418C177.764 33.0229 177.685 33.5152 177.573 34.1187ZM205.811 31.8796C205.826 32.1019 205.755 32.3163 205.596 32.5227L205.382 32.7847C204.826 33.4517 203.81 34.0393 202.333 34.5474C201.062 34.9603 199.863 35.1985 198.736 35.262C198.482 35.2779 198.268 35.2858 198.093 35.2858C197.918 35.3017 197.767 35.3097 197.64 35.3097H197.069C195.306 35.135 194.17 34.9841 193.662 34.8571C192.741 34.5712 191.733 33.9519 190.637 32.9991C188.779 31.3793 187.85 29.2593 187.85 26.6391V26.2103C187.866 26.1309 187.882 25.988 187.898 25.7816C187.914 25.5592 187.937 25.2813 187.969 24.9479C188.049 24.2491 188.485 23.2646 189.279 21.9942C190.963 19.2787 193.638 17.9209 197.307 17.9209C199.197 17.9209 200.777 18.1432 202.047 18.5879L202.738 18.8261C203.532 19.096 204.096 19.3739 204.429 19.6598C204.667 19.8345 204.786 20.1282 204.786 20.5411C204.786 21.0652 204.778 21.486 204.763 21.8036C204.763 22.1212 204.755 22.3435 204.739 22.4706C204.596 23.3598 204.246 23.8045 203.691 23.8045C202.944 23.8045 202.468 23.5186 202.261 22.947L202.023 22.3276C201.721 21.5495 201.118 20.9699 200.213 20.5888C199.752 20.3982 199.189 20.3029 198.522 20.3029C197.251 20.3029 196.243 20.7476 195.496 21.6369C194.702 22.5738 194.305 23.8601 194.305 25.4957C194.305 25.5592 194.297 25.7101 194.282 25.9483C194.266 26.1706 194.258 26.3136 194.258 26.3771V26.8297L194.472 28.5447C194.583 29.4658 194.949 30.3312 195.568 31.1411C196.267 32.0304 197.053 32.4751 197.926 32.4751C199.165 32.4751 199.784 31.8001 199.784 30.4503V29.5213L199.76 29.3546L199.736 29.1402C199.609 28.6162 199.308 28.3542 198.831 28.3542H198.307C198.228 28.37 198.109 28.378 197.95 28.378C197.029 28.378 196.568 28.0127 196.568 27.2822C196.568 26.52 196.83 26.0674 197.354 25.9245C197.736 25.8133 198.768 25.7578 200.451 25.7578H204.81C205.414 25.7578 205.715 26.0595 205.715 26.6629C205.715 26.79 205.692 26.9488 205.644 27.1393L205.525 27.6157L205.382 28.3542L205.334 28.8067C205.334 29.6643 205.461 30.5933 205.715 31.5937L205.739 31.689L205.811 31.8796ZM224.825 34.4045C224.667 34.8015 224.349 35 223.873 35H216.774C216.33 35 216.012 34.8015 215.821 34.4045C215.774 34.2616 215.75 34.1266 215.75 33.9996C215.75 33.6502 215.933 33.3643 216.298 33.142L216.417 33.0706L216.584 32.9753C216.885 32.8165 217.036 32.5703 217.036 32.2369C217.036 31.9669 216.917 31.4111 216.679 30.5694L216.488 29.9025H211.176L211.01 30.3789C210.724 31.1888 210.581 31.7446 210.581 32.0463C210.581 32.5386 210.787 32.88 211.2 33.0706L211.319 33.142C211.685 33.3643 211.867 33.6581 211.867 34.0234C211.867 34.6745 211.526 35 210.843 35H207.151C206.516 35 206.198 34.6745 206.198 34.0234C206.198 33.6105 206.365 33.3167 206.698 33.142L206.841 33.0706C207.048 32.9753 207.222 32.7609 207.365 32.4274L207.556 31.9987L207.603 31.9272L210.629 23.876C211.407 21.8592 212.153 20.3585 212.868 19.3739C213.265 18.834 213.741 18.4767 214.297 18.302C214.646 18.1909 215.25 18.1353 216.107 18.1353C216.774 18.1353 217.29 18.3179 217.656 18.6831L217.87 18.8975C218.362 19.4851 219.029 20.7634 219.871 22.7326C219.95 22.9073 220.069 23.1931 220.228 23.5901C220.387 23.9712 220.585 24.4556 220.824 25.0431C221.014 25.5037 221.197 25.9721 221.372 26.4485C221.562 26.9249 221.745 27.4172 221.919 27.9254L222.825 30.4742C222.904 30.6806 222.983 30.9029 223.063 31.1411C223.158 31.3793 223.261 31.6413 223.372 31.9272L223.444 32.0701L223.611 32.4274C223.754 32.745 223.952 32.9594 224.206 33.0706L224.278 33.0944L224.349 33.142C224.714 33.3802 224.897 33.674 224.897 34.0234C224.897 34.1663 224.873 34.2933 224.825 34.4045ZM215.583 27.4013L215.107 25.8054L214.869 25.1861L214.583 24.4238L214.416 23.9236C214.337 23.6695 214.146 23.2566 213.844 22.6849C213.495 23.3678 213.122 24.2174 212.725 25.2337L212.51 25.7816L212.344 26.2342L212.153 26.8058L211.986 27.4013H215.583ZM246.576 34.4045C246.417 34.8015 246.1 35 245.623 35H239.12C238.882 35 238.692 34.9682 238.549 34.9047C238.406 34.8253 238.295 34.738 238.215 34.6427C238.152 34.5315 238.112 34.4204 238.096 34.3092C238.08 34.1981 238.072 34.1028 238.072 34.0234C238.072 33.6264 238.263 33.3326 238.644 33.142L238.787 33.0706C239.105 32.8959 239.295 32.5942 239.359 32.1654V31.9272L239.073 24.0665L235.738 32.8562C235.42 33.412 234.785 33.6899 233.832 33.6899C233.356 33.6899 232.959 33.5628 232.641 33.3088C232.546 33.2452 232.348 33.0467 232.046 32.7133C231.871 32.4751 231.728 32.213 231.617 31.9272L231.474 31.5699L228.616 24.4715L228.282 32.1416C228.346 32.5862 228.552 32.8959 228.902 33.0706L228.997 33.142C229.378 33.3326 229.568 33.6264 229.568 34.0234C229.568 34.1187 229.505 34.3092 229.378 34.5951C229.251 34.865 228.973 35 228.544 35H225.733C225.495 35 225.313 34.9682 225.186 34.9047C225.059 34.8253 224.955 34.738 224.876 34.6427C224.812 34.5315 224.773 34.4204 224.757 34.3092C224.741 34.1981 224.733 34.1028 224.733 34.0234C224.733 33.6105 224.916 33.3167 225.281 33.142L225.424 33.0706C225.773 32.9118 225.964 32.5306 225.995 31.9272L226.329 21.1604C226.281 20.7158 226.083 20.4141 225.733 20.2553L225.662 20.2315L225.614 20.1838C225.249 20.0091 225.066 19.7154 225.066 19.3025C225.066 18.6514 225.408 18.3258 226.091 18.3258H231.712C232.205 18.3258 232.554 18.4052 232.76 18.564C232.967 18.707 233.149 19.0087 233.308 19.4692L235.833 26.8773L238.406 19.2548C238.612 18.6355 239.12 18.3258 239.93 18.3258H245.123C245.457 18.3258 245.711 18.4291 245.885 18.6355C246.076 18.8419 246.171 19.0722 246.171 19.3263C246.171 19.7233 245.989 20.0091 245.623 20.1838L245.48 20.2553C245.147 20.4141 244.94 20.7237 244.861 21.1843V21.3986L245.385 31.9272C245.401 32.4989 245.592 32.88 245.957 33.0706L246.028 33.0944L246.1 33.142C246.465 33.3802 246.648 33.674 246.648 34.0234C246.648 34.1663 246.624 34.2933 246.576 34.4045ZM262.712 34.1187C262.601 34.7062 261.966 35 260.806 35H248.158C247.92 35 247.737 34.9682 247.61 34.9047C247.483 34.8253 247.38 34.738 247.3 34.6427C247.237 34.5315 247.197 34.4204 247.181 34.3092C247.165 34.1981 247.158 34.1028 247.158 34.0234C247.158 33.6105 247.34 33.3167 247.705 33.142L247.848 33.0706C248.166 32.8959 248.356 32.5942 248.42 32.1654V21.1604C248.341 20.7158 248.15 20.4141 247.848 20.2553L247.777 20.2315L247.705 20.1838C247.34 20.0091 247.158 19.7154 247.158 19.3025C247.158 18.6514 247.491 18.3258 248.158 18.3258H259.711C260.965 18.3258 261.728 18.4608 261.998 18.7308C262.283 19.0007 262.426 19.7551 262.426 20.9937C262.426 21.9783 261.974 22.4706 261.069 22.4706C260.687 22.4706 260.108 22.0577 259.33 21.2319C258.917 20.819 258.417 20.5888 257.829 20.5411L257.495 20.5173L256.805 20.4935H255.947L255.828 20.5173L255.566 20.5888C255.058 20.7317 254.804 21.089 254.804 21.6607V24.9479H255.78L256.4 24.9717H257.615C258.107 24.9717 258.456 24.797 258.663 24.4476L258.734 24.3285L258.829 24.2094L258.996 23.9951C259.203 23.8204 259.481 23.733 259.83 23.733C260.386 23.733 260.727 24.0348 260.854 24.6382L260.83 25.8292V27.187C260.83 27.4887 260.822 27.6475 260.806 27.6634L260.592 28.0921C260.465 28.3145 260.155 28.4256 259.663 28.4256C259.346 28.4256 259.052 28.2906 258.782 28.0207L258.544 27.7825C258.242 27.4966 257.916 27.314 257.567 27.2346C257.535 27.2187 257.424 27.2108 257.233 27.2108C257.043 27.2108 256.765 27.2028 256.4 27.187L255.423 27.1631H254.732V31.022C254.796 31.5937 254.971 32.0066 255.256 32.2607C255.59 32.5465 256.146 32.6894 256.924 32.6894C257.765 32.6894 258.353 32.6339 258.686 32.5227C259.242 32.3798 259.735 32.0701 260.163 31.5937L260.378 31.3555L260.592 31.0935C260.846 30.76 261.164 30.5933 261.545 30.5933C262.117 30.5933 262.537 30.7282 262.807 30.9982C262.966 31.157 263.046 31.419 263.046 31.7843C263.046 31.959 263.014 32.2448 262.95 32.6418C262.903 33.0229 262.823 33.5152 262.712 34.1187Z" fill="white" style="fill:white;fill:white;fill-opacity:1;"/>
</svg>
